<svg xmlns="http://www.w3.org/2000/svg" version="1.1" viewBox="0 0 960 720" fill="none" stroke="none" stroke-linecap="square" stroke-miterlimit="10"><clipPath><path d="m0 0l960 0 0 720 -960 0 0-720z" clip-rule="nonzero"/></clipPath><g clip-path="url(#p.0)"><path fill="#000000" fill-opacity="0" d="m0 0l960 0 0 720 -960 0zM284.29 74.27" fill-rule="nonzero"/><path fill="#cfe2f3" d="m284.29 74.27l0 0c-2.42-9.93 5.52-19.75 20.46-25.31 14.94-5.56 34.24-5.87 49.73-0.81l0 0c5.49-5.77 15.53-9.76 27.09-10.75 11.56-0.99 23.28 1.12 31.61 5.71l0 0c4.67-5.23 13.85-8.75 24.27-9.3 10.42-0.55 20.62 1.94 26.97 6.59l0 0c8.44-5.55 21.88-7.88 34.49-6 12.61 1.89 22.13 7.66 24.45 14.81l0 0c10.34 1.58 18.96 5.58 23.62 10.98 4.66 5.4 4.91 11.66 0.69 17.17l0 0c10.19 7.4 12.57 17.26 6.26 25.91 -6.31 8.64-20.36 14.77-36.92 16.09 -0.12 8.11-8.09 15.55-20.83 19.46 -12.75 3.91-28.29 3.66-40.63-0.63 -5.26 9.71-20.05 16.86-37.99 18.36 -17.94 1.49-35.81-2.94-45.89-11.37 -12.36 4.16-27.18 5.36-41.13 3.32 -13.95-2.03-25.85-7.13-33.02-14.13l0 0c-12.63 0.82-24.83-2.83-30.56-9.14 -5.73-6.32-3.76-13.95 4.92-19.12l0 0c-11.26-3.7-17.01-11.04-14.24-18.2 2.77-7.16 13.42-12.5 26.4-13.26z" fill-rule="nonzero"/><path fill="#000000" fill-opacity="0" d="m271.89 106.11l0 0c5.31 1.75 11.45 2.54 17.59 2.27m8.04 25.99c2.64-0.17 5.23-0.54 7.7-1.09m66.45 11.89c-1.86-1.55-3.41-3.22-4.64-4.96m88.52-2.03l0 0c0.96-1.77 1.58-3.59 1.85-5.44m59.61-13.39c0.12-8.64-8.66-16.54-22.58-20.32m53.24-21.67c-2.25 2.94-5.7 5.55-10.06 7.62m-14.25-35.77l0 0c0.38 1.19 0.56 2.39 0.53 3.6m-59.47-12.41l0 0c-2.11 1.38-3.84 2.93-5.15 4.59m-46.09-1.88l0 0c-1.12 1.26-1.96 2.59-2.5 3.96m-56.2 1.08l0 0c3.28 1.07 6.31 2.36 9.03 3.84m-79.22 22.27l0 0c0.33 1.37 0.86 2.72 1.58 4.04" fill-rule="nonzero"/><path stroke="#000000" stroke-width="1" stroke-linejoin="round" stroke-linecap="butt" d="m284.29 74.27l0 0c-2.42-9.93 5.52-19.75 20.46-25.31 14.94-5.56 34.24-5.87 49.73-0.81l0 0c5.49-5.77 15.53-9.76 27.09-10.75 11.56-0.99 23.28 1.12 31.61 5.71l0 0c4.67-5.23 13.85-8.75 24.27-9.3 10.42-0.55 20.62 1.94 26.97 6.59l0 0c8.44-5.55 21.88-7.88 34.49-6 12.61 1.89 22.13 7.66 24.45 14.81l0 0c10.34 1.58 18.96 5.58 23.62 10.98 4.66 5.4 4.91 11.66 0.69 17.17l0 0c10.19 7.4 12.57 17.26 6.26 25.91 -6.31 8.64-20.36 14.77-36.92 16.09 -0.12 8.11-8.09 15.55-20.83 19.46 -12.75 3.91-28.29 3.66-40.63-0.63 -5.26 9.71-20.05 16.86-37.99 18.36 -17.94 1.49-35.81-2.94-45.89-11.37 -12.36 4.16-27.18 5.36-41.13 3.32 -13.95-2.03-25.85-7.13-33.02-14.13l0 0c-12.63 0.82-24.83-2.83-30.56-9.14 -5.73-6.32-3.76-13.95 4.92-19.12l0 0c-11.26-3.7-17.01-11.04-14.24-18.2 2.77-7.16 13.42-12.5 26.4-13.26z" fill-rule="nonzero"/><path stroke="#000000" stroke-width="1" stroke-linejoin="round" stroke-linecap="butt" d="m271.89 106.11l0 0c5.31 1.75 11.45 2.54 17.59 2.27m8.04 25.99c2.64-0.17 5.23-0.54 7.7-1.09m66.45 11.89c-1.86-1.55-3.41-3.22-4.64-4.96m88.52-2.03l0 0c0.96-1.77 1.58-3.59 1.85-5.44m59.61-13.39c0.12-8.64-8.66-16.54-22.58-20.32m53.24-21.67c-2.25 2.94-5.7 5.55-10.06 7.62m-14.25-35.77l0 0c0.38 1.19 0.56 2.39 0.53 3.6m-59.47-12.41l0 0c-2.11 1.38-3.84 2.93-5.15 4.59m-46.09-1.88l0 0c-1.12 1.26-1.96 2.59-2.5 3.96m-56.2 1.08l0 0c3.28 1.07 6.31 2.36 9.03 3.84m-79.22 22.27l0 0c0.33 1.37 0.86 2.72 1.58 4.04" fill-rule="nonzero"/><path fill="#cfe2f3" d="m135.75 223.58l0 0c0-3.22 2.61-5.82 5.82-5.82l139.98 0c1.54 0 3.02 0.61 4.12 1.71 1.09 1.09 1.71 2.57 1.71 4.12l0 23.29c0 3.22-2.61 5.82-5.82 5.82l-139.98 0c-3.22 0-5.82-2.61-5.82-5.82z" fill-rule="nonzero"/><path stroke="#000000" stroke-width="1" stroke-linejoin="round" stroke-linecap="butt" d="m135.75 223.58l0 0c0-3.22 2.61-5.82 5.82-5.82l139.98 0c1.54 0 3.02 0.61 4.12 1.71 1.09 1.09 1.71 2.57 1.71 4.12l0 23.29c0 3.22-2.61 5.82-5.82 5.82l-139.98 0c-3.22 0-5.82-2.61-5.82-5.82z" fill-rule="nonzero"/><path fill="#000000" fill-opacity="0" d="m144.47 217.76l134.17 0 0 34.93 -134.17 0z" fill-rule="nonzero"/><path fill="#000000" d="m156.2 239.56l-2.56-6.73 1.2 0 1.44 4.03q0.23 0.66 0.44 1.36 0.16-0.53 0.42-1.28l1.5-4.11 1.17 0 -2.55 6.73 -1.06 0zm9.18-0.83q-0.62 0.53-1.22 0.77 -0.58 0.22-1.25 0.22 -1.12 0-1.72-0.55 -0.59-0.55-0.59-1.39 0-0.48 0.22-0.89 0.23-0.42 0.59-0.67 0.38-0.25 0.83-0.37 0.33-0.08 1.02-0.17 1.38-0.16 2.03-0.39 0.02-0.23 0.02-0.3 0-0.7-0.33-0.98 -0.44-0.39-1.3-0.39 -0.81 0-1.2 0.28 -0.37 0.28-0.56 1l-1.11-0.14q0.14-0.72 0.48-1.16 0.36-0.45 1.02-0.69 0.67-0.23 1.53-0.23 0.88 0 1.41 0.2 0.55 0.2 0.8 0.52 0.25 0.3 0.36 0.77 0.05 0.3 0.05 1.06l0 1.52q0 1.59 0.08 2.02 0.08 0.42 0.28 0.81l-1.19 0q-0.17-0.36-0.23-0.83zm-0.09-2.56q-0.62 0.27-1.86 0.44 -0.7 0.11-1 0.23 -0.3 0.13-0.45 0.38 -0.16 0.23-0.16 0.53 0 0.45 0.34 0.77 0.34 0.3 1.02 0.3 0.66 0 1.17-0.28 0.52-0.3 0.77-0.8 0.17-0.37 0.17-1.14l0-0.42zm3.1 3.39l0-6.73 1.03 0 0 1.02q0.39-0.72 0.72-0.94 0.34-0.23 0.73-0.23 0.58 0 1.17 0.36l-0.39 1.06q-0.42-0.25-0.83-0.25 -0.37 0-0.69 0.23 -0.3 0.22-0.42 0.63 -0.19 0.61-0.19 1.33l0 3.53 -1.14 0zm4.45 0l0-6.73 1.03 0 0 0.95q0.73-1.11 2.14-1.11 0.61 0 1.11 0.22 0.52 0.22 0.77 0.58 0.27 0.34 0.36 0.84 0.06 0.31 0.06 1.11l0 4.14 -1.14 0 0-4.09q0-0.7-0.14-1.05 -0.12-0.34-0.47-0.55 -0.33-0.22-0.78-0.22 -0.73 0-1.27 0.47 -0.53 0.45-0.53 1.75l0 3.69 -1.14 0zm7.41-7.98l0-1.33 1.14 0 0 1.33 -1.14 0zm0 7.98l0-6.73 1.14 0 0 6.73 -1.14 0zm2.51-2.02l1.13-0.17q0.09 0.67 0.53 1.05 0.44 0.36 1.22 0.36 0.78 0 1.16-0.31 0.39-0.33 0.39-0.77 0-0.39-0.34-0.61 -0.23-0.16-1.17-0.39 -1.25-0.31-1.73-0.55 -0.48-0.23-0.73-0.64 -0.25-0.41-0.25-0.91 0-0.45 0.2-0.83 0.2-0.39 0.56-0.64 0.27-0.2 0.72-0.33 0.47-0.14 1-0.14 0.78 0 1.38 0.23 0.61 0.22 0.89 0.61 0.3 0.39 0.41 1.05l-1.12 0.16q-0.08-0.53-0.44-0.81 -0.36-0.3-1.03-0.3 -0.78 0-1.12 0.27 -0.34 0.25-0.34 0.61 0 0.22 0.14 0.39 0.14 0.19 0.44 0.31 0.17 0.06 1.02 0.28 1.22 0.33 1.69 0.53 0.48 0.2 0.75 0.61 0.28 0.39 0.28 0.97 0 0.58-0.34 1.08 -0.33 0.5-0.95 0.78 -0.62 0.28-1.42 0.28 -1.31 0-2-0.55 -0.69-0.55-0.87-1.62zm7.12 2.02l0-9.31 1.14 0 0 3.34q0.8-0.92 2.02-0.92 0.75 0 1.3 0.3 0.56 0.3 0.8 0.81 0.23 0.52 0.23 1.52l0 4.27 -1.14 0 0-4.27q0-0.86-0.37-1.25 -0.36-0.39-1.05-0.39 -0.5 0-0.95 0.27 -0.45 0.25-0.64 0.7 -0.19 0.45-0.19 1.25l0 3.69 -1.14 0zm6.96-2.8l0-1.14 3.52 0 0 1.14 -3.52 0zm5.16 2.8l0-5.86 -1 0 0-0.87 1 0 0-0.72q0-0.69 0.13-1.02 0.17-0.44 0.58-0.72 0.42-0.28 1.17-0.28 0.48 0 1.06 0.13l-0.17 0.98q-0.36-0.06-0.67-0.06 -0.52 0-0.73 0.23 -0.22 0.22-0.22 0.83l0 0.63 1.31 0 0 0.88 -1.31 0 0 5.86 -1.14 0zm8.05-2.17l1.19 0.14q-0.28 1.05-1.05 1.63 -0.75 0.56-1.92 0.56 -1.48 0-2.36-0.91 -0.86-0.92-0.86-2.56 0-1.7 0.88-2.64 0.89-0.94 2.28-0.94 1.36 0 2.2 0.92 0.86 0.92 0.86 2.58 0 0.11 0 0.31l-5.03 0q0.06 1.11 0.63 1.7 0.56 0.59 1.41 0.59 0.64 0 1.08-0.33 0.45-0.34 0.7-1.06zm-3.75-1.84l3.77 0q-0.08-0.86-0.44-1.28 -0.55-0.66-1.41-0.66 -0.8 0-1.33 0.53 -0.53 0.52-0.59 1.41zm12.44 6.75q-0.95-1.19-1.61-2.78 -0.66-1.61-0.66-3.33 0-1.5 0.5-2.89 0.56-1.61 1.77-3.2l0.81 0q-0.77 1.33-1.02 1.89 -0.39 0.88-0.61 1.83 -0.27 1.19-0.27 2.39 0 3.05 1.89 6.09l-0.81 0zm6.86-4.91l1.19 0.14q-0.28 1.05-1.05 1.63 -0.75 0.56-1.92 0.56 -1.48 0-2.36-0.91 -0.86-0.92-0.86-2.56 0-1.7 0.88-2.64 0.89-0.94 2.28-0.94 1.36 0 2.2 0.92 0.86 0.92 0.86 2.58 0 0.11 0 0.31l-5.03 0q0.06 1.11 0.63 1.7 0.56 0.59 1.41 0.59 0.64 0 1.08-0.33 0.45-0.34 0.7-1.06zm-3.75-1.84l3.77 0q-0.08-0.86-0.44-1.28 -0.55-0.66-1.41-0.66 -0.8 0-1.33 0.53 -0.53 0.52-0.59 1.41zm6.1 2l1.13-0.17q0.09 0.67 0.53 1.05 0.44 0.36 1.22 0.36 0.78 0 1.16-0.31 0.39-0.33 0.39-0.77 0-0.39-0.34-0.61 -0.23-0.16-1.17-0.39 -1.25-0.31-1.73-0.55 -0.48-0.23-0.73-0.64 -0.25-0.41-0.25-0.91 0-0.45 0.2-0.83 0.2-0.39 0.56-0.64 0.27-0.2 0.72-0.33 0.47-0.14 1-0.14 0.78 0 1.38 0.23 0.61 0.22 0.89 0.61 0.3 0.39 0.41 1.05l-1.12 0.16q-0.08-0.53-0.44-0.81 -0.36-0.3-1.03-0.3 -0.78 0-1.12 0.27 -0.34 0.25-0.34 0.61 0 0.22 0.14 0.39 0.14 0.19 0.44 0.31 0.17 0.06 1.02 0.28 1.22 0.33 1.69 0.53 0.48 0.2 0.75 0.61 0.28 0.39 0.28 0.97 0 0.58-0.34 1.08 -0.33 0.5-0.95 0.78 -0.62 0.28-1.42 0.28 -1.31 0-2-0.55 -0.69-0.55-0.87-1.62zm11.51 1.19q-0.62 0.53-1.22 0.77 -0.58 0.22-1.25 0.22 -1.12 0-1.72-0.55 -0.59-0.55-0.59-1.39 0-0.48 0.22-0.89 0.23-0.42 0.59-0.67 0.38-0.25 0.83-0.37 0.33-0.08 1.02-0.17 1.38-0.16 2.03-0.39 0.02-0.23 0.02-0.3 0-0.7-0.33-0.98 -0.44-0.39-1.3-0.39 -0.81 0-1.2 0.28 -0.37 0.28-0.56 1l-1.11-0.14q0.14-0.72 0.48-1.16 0.36-0.45 1.02-0.69 0.67-0.23 1.53-0.23 0.88 0 1.41 0.2 0.55 0.2 0.8 0.52 0.25 0.3 0.36 0.77 0.05 0.3 0.05 1.06l0 1.52q0 1.59 0.08 2.02 0.08 0.42 0.28 0.81l-1.19 0q-0.17-0.36-0.23-0.83zm-0.09-2.56q-0.62 0.27-1.86 0.44 -0.7 0.11-1 0.23 -0.3 0.13-0.45 0.38 -0.16 0.23-0.16 0.53 0 0.45 0.34 0.77 0.34 0.3 1.02 0.3 0.66 0 1.17-0.28 0.52-0.3 0.77-0.8 0.17-0.37 0.17-1.14l0-0.42zm3.12 3.39l0-6.73 1.02 0 0 0.94q0.33-0.5 0.84-0.8 0.53-0.3 1.2-0.3 0.75 0 1.22 0.31 0.48 0.31 0.69 0.86 0.8-1.17 2.08-1.17 1 0 1.53 0.56 0.55 0.55 0.55 1.7l0 4.63 -1.12 0 0-4.25q0-0.69-0.11-0.98 -0.11-0.3-0.41-0.48 -0.3-0.19-0.69-0.19 -0.72 0-1.19 0.48 -0.47 0.47-0.47 1.5l0 3.92 -1.14 0 0-4.37q0-0.77-0.28-1.14 -0.28-0.39-0.91-0.39 -0.48 0-0.89 0.27 -0.41 0.25-0.59 0.73 -0.19 0.48-0.19 1.41l0 3.5 -1.14 0zm10.65-2.02l1.13-0.17q0.09 0.67 0.53 1.05 0.44 0.36 1.22 0.36 0.78 0 1.16-0.31 0.39-0.33 0.39-0.77 0-0.39-0.34-0.61 -0.23-0.16-1.17-0.39 -1.25-0.31-1.73-0.55 -0.48-0.23-0.73-0.64 -0.25-0.41-0.25-0.91 0-0.45 0.2-0.83 0.2-0.39 0.56-0.64 0.27-0.2 0.72-0.33 0.47-0.14 1-0.14 0.78 0 1.38 0.23 0.61 0.22 0.89 0.61 0.3 0.39 0.41 1.05l-1.12 0.16q-0.08-0.53-0.44-0.81 -0.36-0.3-1.03-0.3 -0.78 0-1.12 0.27 -0.34 0.25-0.34 0.61 0 0.22 0.14 0.39 0.14 0.19 0.44 0.31 0.17 0.06 1.02 0.28 1.22 0.33 1.69 0.53 0.48 0.2 0.75 0.61 0.28 0.39 0.28 0.97 0 0.58-0.34 1.08 -0.33 0.5-0.95 0.78 -0.62 0.28-1.42 0.28 -1.31 0-2-0.55 -0.69-0.55-0.87-1.62zm7.87 4.75l-0.83 0q1.91-3.05 1.91-6.09 0-1.2-0.28-2.37 -0.2-0.95-0.59-1.83 -0.25-0.56-1.03-1.91l0.83 0q1.19 1.59 1.77 3.2 0.48 1.39 0.48 2.89 0 1.72-0.66 3.33 -0.66 1.59-1.59 2.78z" fill-rule="nonzero"/><path fill="#cfe2f3" d="m298.55 223.58l0 0c0-3.22 2.61-5.82 5.82-5.82l139.98 0c1.54 0 3.02 0.61 4.12 1.71 1.09 1.09 1.71 2.57 1.71 4.12l0 23.29c0 3.22-2.61 5.82-5.82 5.82l-139.98 0c-3.22 0-5.82-2.61-5.82-5.82z" fill-rule="nonzero"/><path stroke="#000000" stroke-width="1" stroke-linejoin="round" stroke-linecap="butt" d="m298.55 223.58l0 0c0-3.22 2.61-5.82 5.82-5.82l139.98 0c1.54 0 3.02 0.61 4.12 1.71 1.09 1.09 1.71 2.57 1.71 4.12l0 23.29c0 3.22-2.61 5.82-5.82 5.82l-139.98 0c-3.22 0-5.82-2.61-5.82-5.82z" fill-rule="nonzero"/><path fill="#000000" fill-opacity="0" d="m307.27 217.76l134.17 0 0 34.93 -134.17 0z" fill-rule="nonzero"/><path fill="#000000" d="m319.01 239.56l-2.56-6.73 1.2 0 1.44 4.03q0.23 0.66 0.44 1.36 0.16-0.53 0.42-1.28l1.5-4.11 1.17 0 -2.55 6.73 -1.06 0zm9.18-0.83q-0.62 0.53-1.22 0.77 -0.58 0.22-1.25 0.22 -1.12 0-1.72-0.55 -0.59-0.55-0.59-1.39 0-0.48 0.22-0.89 0.23-0.42 0.59-0.67 0.38-0.25 0.83-0.37 0.33-0.08 1.02-0.17 1.38-0.16 2.03-0.39 0.02-0.23 0.02-0.3 0-0.7-0.33-0.98 -0.44-0.39-1.3-0.39 -0.81 0-1.2 0.28 -0.37 0.28-0.56 1l-1.11-0.14q0.14-0.72 0.48-1.16 0.36-0.45 1.02-0.69 0.67-0.23 1.53-0.23 0.88 0 1.41 0.2 0.55 0.2 0.8 0.52 0.25 0.3 0.36 0.77 0.05 0.3 0.05 1.06l0 1.52q0 1.59 0.08 2.02 0.08 0.42 0.28 0.81l-1.19 0q-0.17-0.36-0.23-0.83zm-0.09-2.56q-0.62 0.27-1.86 0.44 -0.7 0.11-1 0.23 -0.3 0.13-0.45 0.38 -0.16 0.23-0.16 0.53 0 0.45 0.34 0.77 0.34 0.3 1.02 0.3 0.66 0 1.17-0.28 0.52-0.3 0.77-0.8 0.17-0.37 0.17-1.14l0-0.42zm3.1 3.39l0-6.73 1.03 0 0 1.02q0.39-0.72 0.72-0.94 0.34-0.23 0.73-0.23 0.58 0 1.17 0.36l-0.39 1.06q-0.42-0.25-0.83-0.25 -0.37 0-0.69 0.23 -0.3 0.22-0.42 0.63 -0.19 0.61-0.19 1.33l0 3.53 -1.14 0zm4.45 0l0-6.73 1.03 0 0 0.95q0.73-1.11 2.14-1.11 0.61 0 1.11 0.22 0.52 0.22 0.77 0.58 0.27 0.34 0.36 0.84 0.06 0.31 0.06 1.11l0 4.14 -1.14 0 0-4.09q0-0.7-0.14-1.05 -0.12-0.34-0.47-0.55 -0.33-0.22-0.78-0.22 -0.73 0-1.27 0.47 -0.53 0.45-0.53 1.75l0 3.69 -1.14 0zm7.41-7.98l0-1.33 1.14 0 0 1.33 -1.14 0zm0 7.98l0-6.73 1.14 0 0 6.73 -1.14 0zm2.51-2.02l1.13-0.17q0.09 0.67 0.53 1.05 0.44 0.36 1.22 0.36 0.78 0 1.16-0.31 0.39-0.33 0.39-0.77 0-0.39-0.34-0.61 -0.23-0.16-1.17-0.39 -1.25-0.31-1.73-0.55 -0.48-0.23-0.73-0.64 -0.25-0.41-0.25-0.91 0-0.45 0.2-0.83 0.2-0.39 0.56-0.64 0.27-0.2 0.72-0.33 0.47-0.14 1-0.14 0.78 0 1.38 0.23 0.61 0.22 0.89 0.61 0.3 0.39 0.41 1.05l-1.12 0.16q-0.08-0.53-0.44-0.81 -0.36-0.3-1.03-0.3 -0.78 0-1.12 0.27 -0.34 0.25-0.34 0.61 0 0.22 0.14 0.39 0.14 0.19 0.44 0.31 0.17 0.06 1.02 0.28 1.22 0.33 1.69 0.53 0.48 0.2 0.75 0.61 0.28 0.39 0.28 0.97 0 0.58-0.34 1.08 -0.33 0.5-0.95 0.78 -0.62 0.28-1.42 0.28 -1.31 0-2-0.55 -0.69-0.55-0.87-1.62zm7.12 2.02l0-9.31 1.14 0 0 3.34q0.8-0.92 2.02-0.92 0.75 0 1.3 0.3 0.56 0.3 0.8 0.81 0.23 0.52 0.23 1.52l0 4.27 -1.14 0 0-4.27q0-0.86-0.37-1.25 -0.36-0.39-1.05-0.39 -0.5 0-0.95 0.27 -0.45 0.25-0.64 0.7 -0.19 0.45-0.19 1.25l0 3.69 -1.14 0zm6.96-2.8l0-1.14 3.52 0 0 1.14 -3.52 0zm5.16 2.8l0-5.86 -1 0 0-0.87 1 0 0-0.72q0-0.69 0.13-1.02 0.17-0.44 0.58-0.72 0.42-0.28 1.17-0.28 0.48 0 1.06 0.13l-0.17 0.98q-0.36-0.06-0.67-0.06 -0.52 0-0.73 0.23 -0.22 0.22-0.22 0.83l0 0.63 1.31 0 0 0.88 -1.31 0 0 5.86 -1.14 0zm8.05-2.17l1.19 0.14q-0.28 1.05-1.05 1.63 -0.75 0.56-1.92 0.56 -1.48 0-2.36-0.91 -0.86-0.92-0.86-2.56 0-1.7 0.88-2.64 0.89-0.94 2.28-0.94 1.36 0 2.2 0.92 0.86 0.92 0.86 2.58 0 0.11 0 0.31l-5.03 0q0.06 1.11 0.63 1.7 0.56 0.59 1.41 0.59 0.64 0 1.08-0.33 0.45-0.34 0.7-1.06zm-3.75-1.84l3.77 0q-0.08-0.86-0.44-1.28 -0.55-0.66-1.41-0.66 -0.8 0-1.33 0.53 -0.53 0.52-0.59 1.41zm12.44 6.75q-0.95-1.19-1.61-2.78 -0.66-1.61-0.66-3.33 0-1.5 0.5-2.89 0.56-1.61 1.77-3.2l0.81 0q-0.77 1.33-1.02 1.89 -0.39 0.88-0.61 1.83 -0.27 1.19-0.27 2.39 0 3.05 1.89 6.09l-0.81 0zm6.86-4.91l1.19 0.14q-0.28 1.05-1.05 1.63 -0.75 0.56-1.92 0.56 -1.48 0-2.36-0.91 -0.86-0.92-0.86-2.56 0-1.7 0.88-2.64 0.89-0.94 2.28-0.94 1.36 0 2.2 0.92 0.86 0.92 0.86 2.58 0 0.11 0 0.31l-5.03 0q0.06 1.11 0.63 1.7 0.56 0.59 1.41 0.59 0.64 0 1.08-0.33 0.45-0.34 0.7-1.06zm-3.75-1.84l3.77 0q-0.08-0.86-0.44-1.28 -0.55-0.66-1.41-0.66 -0.8 0-1.33 0.53 -0.53 0.52-0.59 1.41zm10.85 6.59l0-3.3q-0.27 0.38-0.75 0.63 -0.48 0.25-1.02 0.25 -1.2 0-2.08-0.95 -0.86-0.97-0.86-2.64 0-1.02 0.34-1.81 0.36-0.81 1.03-1.22 0.67-0.42 1.47-0.42 1.25 0 1.97 1.05l0-0.89 1.03 0 0 9.31 -1.14 0zm-3.53-5.97q0 1.3 0.55 1.95 0.55 0.66 1.31 0.66 0.73 0 1.25-0.62 0.53-0.62 0.53-1.87 0-1.36-0.56-2.03 -0.55-0.69-1.3-0.69 -0.73 0-1.27 0.64 -0.52 0.63-0.52 1.97zm6.65-4.59l0-1.33 1.14 0 0 1.33 -1.14 0zm0 7.98l0-6.73 1.14 0 0 6.73 -1.14 0zm7.35-0.83q-0.62 0.53-1.22 0.77 -0.58 0.22-1.25 0.22 -1.12 0-1.72-0.55 -0.59-0.55-0.59-1.39 0-0.48 0.22-0.89 0.23-0.42 0.59-0.67 0.38-0.25 0.83-0.37 0.33-0.08 1.02-0.17 1.38-0.16 2.03-0.39 0.02-0.23 0.02-0.3 0-0.7-0.33-0.98 -0.44-0.39-1.3-0.39 -0.81 0-1.2 0.28 -0.37 0.28-0.56 1l-1.11-0.14q0.14-0.72 0.48-1.16 0.36-0.45 1.02-0.69 0.67-0.23 1.53-0.23 0.88 0 1.41 0.2 0.55 0.2 0.8 0.52 0.25 0.3 0.36 0.77 0.05 0.3 0.05 1.06l0 1.52q0 1.59 0.08 2.02 0.08 0.42 0.28 0.81l-1.19 0q-0.17-0.36-0.23-0.83zm-0.09-2.56q-0.62 0.27-1.86 0.44 -0.7 0.11-1 0.23 -0.3 0.13-0.45 0.38 -0.16 0.23-0.16 0.53 0 0.45 0.34 0.77 0.34 0.3 1.02 0.3 0.66 0 1.17-0.28 0.52-0.3 0.77-0.8 0.17-0.37 0.17-1.14l0-0.42zm7.49 3.39l0-0.84q-0.64 1-1.89 1 -0.8 0-1.48-0.44 -0.67-0.45-1.05-1.25 -0.37-0.8-0.37-1.83 0-1.02 0.34-1.83 0.34-0.83 1.02-1.27 0.67-0.44 1.5-0.44 0.61 0 1.08 0.27 0.48 0.25 0.78 0.66l0-3.34 1.14 0 0 9.31 -1.06 0zm-3.61-3.36q0 1.3 0.53 1.94 0.55 0.64 1.3 0.64 0.75 0 1.27-0.61 0.53-0.62 0.53-1.87 0-1.39-0.53-2.03 -0.53-0.66-1.31-0.66 -0.77 0-1.28 0.63 -0.5 0.63-0.5 1.97zm7.4 6.09l-0.83 0q1.91-3.05 1.91-6.09 0-1.2-0.28-2.37 -0.2-0.95-0.59-1.83 -0.25-0.56-1.03-1.91l0.83 0q1.19 1.59 1.77 3.2 0.48 1.39 0.48 2.89 0 1.72-0.66 3.33 -0.66 1.59-1.59 2.78z" fill-rule="nonzero"/><path fill="#cfe2f3" d="m461.35 223.58l0 0c0-3.22 2.61-5.82 5.82-5.82l139.98 0c1.54 0 3.02 0.61 4.12 1.71 1.09 1.09 1.71 2.57 1.71 4.12l0 23.29c0 3.22-2.61 5.82-5.82 5.82l-139.98 0c-3.22 0-5.82-2.61-5.82-5.82z" fill-rule="nonzero"/><path stroke="#000000" stroke-width="1" stroke-linejoin="round" stroke-linecap="butt" d="m461.35 223.58l0 0c0-3.22 2.61-5.82 5.82-5.82l139.98 0c1.54 0 3.02 0.61 4.12 1.71 1.09 1.09 1.71 2.57 1.71 4.12l0 23.29c0 3.22-2.61 5.82-5.82 5.82l-139.98 0c-3.22 0-5.82-2.61-5.82-5.82z" fill-rule="nonzero"/><path fill="#000000" fill-opacity="0" d="m470.08 217.76l134.17 0 0 34.93 -134.17 0z" fill-rule="nonzero"/><path fill="#000000" d="m481.81 239.56l-2.56-6.73 1.2 0 1.44 4.03q0.23 0.66 0.44 1.36 0.16-0.53 0.42-1.28l1.5-4.11 1.17 0 -2.55 6.73 -1.06 0zm9.18-0.83q-0.62 0.53-1.22 0.77 -0.58 0.22-1.25 0.22 -1.12 0-1.72-0.55 -0.59-0.55-0.59-1.39 0-0.48 0.22-0.89 0.23-0.42 0.59-0.67 0.38-0.25 0.83-0.37 0.33-0.08 1.02-0.17 1.38-0.16 2.03-0.39 0.02-0.23 0.02-0.3 0-0.7-0.33-0.98 -0.44-0.39-1.3-0.39 -0.81 0-1.2 0.28 -0.37 0.28-0.56 1l-1.11-0.14q0.14-0.72 0.48-1.16 0.36-0.45 1.02-0.69 0.67-0.23 1.53-0.23 0.88 0 1.41 0.2 0.55 0.2 0.8 0.52 0.25 0.3 0.36 0.77 0.05 0.3 0.05 1.06l0 1.52q0 1.59 0.08 2.02 0.08 0.42 0.28 0.81l-1.19 0q-0.17-0.36-0.23-0.83zm-0.09-2.56q-0.62 0.27-1.86 0.44 -0.7 0.11-1 0.23 -0.3 0.13-0.45 0.38 -0.16 0.23-0.16 0.53 0 0.45 0.34 0.77 0.34 0.3 1.02 0.3 0.66 0 1.17-0.28 0.52-0.3 0.77-0.8 0.17-0.37 0.17-1.14l0-0.42zm3.1 3.39l0-6.73 1.03 0 0 1.02q0.39-0.72 0.72-0.94 0.34-0.23 0.73-0.23 0.58 0 1.17 0.36l-0.39 1.06q-0.42-0.25-0.83-0.25 -0.37 0-0.69 0.23 -0.3 0.22-0.42 0.63 -0.19 0.61-0.19 1.33l0 3.53 -1.14 0zm4.45 0l0-6.73 1.03 0 0 0.95q0.73-1.11 2.14-1.11 0.61 0 1.11 0.22 0.52 0.22 0.77 0.58 0.27 0.34 0.36 0.84 0.06 0.31 0.06 1.11l0 4.14 -1.14 0 0-4.09q0-0.7-0.14-1.05 -0.12-0.34-0.47-0.55 -0.33-0.22-0.78-0.22 -0.73 0-1.27 0.47 -0.53 0.45-0.53 1.75l0 3.69 -1.14 0zm7.41-7.98l0-1.33 1.14 0 0 1.33 -1.14 0zm0 7.98l0-6.73 1.14 0 0 6.73 -1.14 0zm2.51-2.02l1.13-0.17q0.09 0.67 0.53 1.05 0.44 0.36 1.22 0.36 0.78 0 1.16-0.31 0.39-0.33 0.39-0.77 0-0.39-0.34-0.61 -0.23-0.16-1.17-0.39 -1.25-0.31-1.73-0.55 -0.48-0.23-0.73-0.64 -0.25-0.41-0.25-0.91 0-0.45 0.2-0.83 0.2-0.39 0.56-0.64 0.27-0.2 0.72-0.33 0.47-0.14 1-0.14 0.78 0 1.38 0.23 0.61 0.22 0.89 0.61 0.3 0.39 0.41 1.05l-1.12 0.16q-0.08-0.53-0.44-0.81 -0.36-0.3-1.03-0.3 -0.78 0-1.12 0.27 -0.34 0.25-0.34 0.61 0 0.22 0.14 0.39 0.14 0.19 0.44 0.31 0.17 0.06 1.02 0.28 1.22 0.33 1.69 0.53 0.48 0.2 0.75 0.61 0.28 0.39 0.28 0.97 0 0.58-0.34 1.08 -0.33 0.5-0.95 0.78 -0.62 0.28-1.42 0.28 -1.31 0-2-0.55 -0.69-0.55-0.87-1.62zm7.12 2.02l0-9.31 1.14 0 0 3.34q0.8-0.92 2.02-0.92 0.75 0 1.3 0.3 0.56 0.3 0.8 0.81 0.23 0.52 0.23 1.52l0 4.27 -1.14 0 0-4.27q0-0.86-0.37-1.25 -0.36-0.39-1.05-0.39 -0.5 0-0.95 0.27 -0.45 0.25-0.64 0.7 -0.19 0.45-0.19 1.25l0 3.69 -1.14 0zm6.96-2.8l0-1.14 3.52 0 0 1.14 -3.52 0zm5.16 2.8l0-5.86 -1 0 0-0.87 1 0 0-0.72q0-0.69 0.13-1.02 0.17-0.44 0.58-0.72 0.42-0.28 1.17-0.28 0.48 0 1.06 0.13l-0.17 0.98q-0.36-0.06-0.67-0.06 -0.52 0-0.73 0.23 -0.22 0.22-0.22 0.83l0 0.63 1.31 0 0 0.88 -1.31 0 0 5.86 -1.14 0zm8.05-2.17l1.19 0.14q-0.28 1.05-1.05 1.63 -0.75 0.56-1.92 0.56 -1.48 0-2.36-0.91 -0.86-0.92-0.86-2.56 0-1.7 0.88-2.64 0.89-0.94 2.28-0.94 1.36 0 2.2 0.92 0.86 0.92 0.86 2.58 0 0.11 0 0.31l-5.03 0q0.06 1.11 0.63 1.7 0.56 0.59 1.41 0.59 0.64 0 1.08-0.33 0.45-0.34 0.7-1.06zm-3.75-1.84l3.77 0q-0.08-0.86-0.44-1.28 -0.55-0.66-1.41-0.66 -0.8 0-1.33 0.53 -0.53 0.52-0.59 1.41zm12.44 6.75q-0.95-1.19-1.61-2.78 -0.66-1.61-0.66-3.33 0-1.5 0.5-2.89 0.56-1.61 1.77-3.2l0.81 0q-0.77 1.33-1.02 1.89 -0.39 0.88-0.61 1.83 -0.27 1.19-0.27 2.39 0 3.05 1.89 6.09l-0.81 0zm6.67-2.73l0-0.98q-0.8 1.14-2.14 1.14 -0.59 0-1.12-0.23 -0.52-0.23-0.77-0.58 -0.25-0.34-0.34-0.84 -0.08-0.33-0.08-1.06l0-4.17 1.14 0 0 3.73q0 0.89 0.08 1.2 0.11 0.45 0.45 0.72 0.34 0.25 0.86 0.25 0.52 0 0.97-0.27 0.45-0.27 0.64-0.72 0.19-0.45 0.19-1.31l0-3.61 1.14 0 0 6.73 -1.02 0zm2.96 0l0-9.31 1.14 0 0 9.31 -1.14 0zm2.54-2.02l1.13-0.17q0.09 0.67 0.53 1.05 0.44 0.36 1.22 0.36 0.78 0 1.16-0.31 0.39-0.33 0.39-0.77 0-0.39-0.34-0.61 -0.23-0.16-1.17-0.39 -1.25-0.31-1.73-0.55 -0.48-0.23-0.73-0.64 -0.25-0.41-0.25-0.91 0-0.45 0.2-0.83 0.2-0.39 0.56-0.64 0.27-0.2 0.72-0.33 0.47-0.14 1-0.14 0.78 0 1.38 0.23 0.61 0.22 0.89 0.61 0.3 0.39 0.41 1.05l-1.12 0.16q-0.08-0.53-0.44-0.81 -0.36-0.3-1.03-0.3 -0.78 0-1.12 0.27 -0.34 0.25-0.34 0.61 0 0.22 0.14 0.39 0.14 0.19 0.44 0.31 0.17 0.06 1.02 0.28 1.22 0.33 1.69 0.53 0.48 0.2 0.75 0.61 0.28 0.39 0.28 0.97 0 0.58-0.34 1.08 -0.33 0.5-0.95 0.78 -0.62 0.28-1.42 0.28 -1.31 0-2-0.55 -0.69-0.55-0.87-1.62zm7.38 2.02l0-5.86 -1 0 0-0.87 1 0 0-0.72q0-0.69 0.13-1.02 0.17-0.44 0.58-0.72 0.42-0.28 1.17-0.28 0.48 0 1.06 0.13l-0.17 0.98q-0.36-0.06-0.67-0.06 -0.52 0-0.73 0.23 -0.22 0.22-0.22 0.83l0 0.63 1.31 0 0 0.88 -1.31 0 0 5.86 -1.14 0zm3.02-3.37q0-1.87 1.03-2.77 0.88-0.75 2.13-0.75 1.39 0 2.27 0.91 0.89 0.91 0.89 2.52 0 1.3-0.39 2.05 -0.39 0.75-1.14 1.17 -0.75 0.41-1.62 0.41 -1.42 0-2.3-0.91 -0.86-0.91-0.86-2.62zm1.17 0q0 1.3 0.56 1.95 0.56 0.64 1.42 0.64 0.84 0 1.41-0.64 0.58-0.66 0.58-1.98 0-1.25-0.58-1.89 -0.56-0.66-1.41-0.66 -0.86 0-1.42 0.64 -0.56 0.64-0.56 1.94zm7.41 6.11l-0.83 0q1.91-3.05 1.91-6.09 0-1.2-0.28-2.37 -0.2-0.95-0.59-1.83 -0.25-0.56-1.03-1.91l0.83 0q1.19 1.59 1.77 3.2 0.48 1.39 0.48 2.89 0 1.72-0.66 3.33 -0.66 1.59-1.59 2.78z" fill-rule="nonzero"/><path fill="#cfe2f3" d="m624.15 223.58l0 0c0-3.22 2.61-5.82 5.82-5.82l139.98 0c1.54 0 3.02 0.61 4.12 1.71 1.09 1.09 1.71 2.57 1.71 4.12l0 23.29c0 3.22-2.61 5.82-5.82 5.82l-139.98 0c-3.22 0-5.82-2.61-5.82-5.82z" fill-rule="nonzero"/><path stroke="#000000" stroke-width="1" stroke-linejoin="round" stroke-linecap="butt" d="m624.15 223.58l0 0c0-3.22 2.61-5.82 5.82-5.82l139.98 0c1.54 0 3.02 0.61 4.12 1.71 1.09 1.09 1.71 2.57 1.71 4.12l0 23.29c0 3.22-2.61 5.82-5.82 5.82l-139.98 0c-3.22 0-5.82-2.61-5.82-5.82z" fill-rule="nonzero"/><path fill="#000000" fill-opacity="0" d="m632.88 217.76l134.17 0 0 34.93 -134.17 0z" fill-rule="nonzero"/><path fill="#000000" d="m644.61 239.56l-2.56-6.73 1.2 0 1.44 4.03q0.23 0.66 0.44 1.36 0.16-0.53 0.42-1.28l1.5-4.11 1.17 0 -2.55 6.73 -1.06 0zm9.18-0.83q-0.62 0.53-1.22 0.77 -0.58 0.22-1.25 0.22 -1.12 0-1.72-0.55 -0.59-0.55-0.59-1.39 0-0.48 0.22-0.89 0.23-0.42 0.59-0.67 0.38-0.25 0.83-0.37 0.33-0.08 1.02-0.17 1.38-0.16 2.03-0.39 0.02-0.23 0.02-0.3 0-0.7-0.33-0.98 -0.44-0.39-1.3-0.39 -0.81 0-1.2 0.28 -0.37 0.28-0.56 1l-1.11-0.14q0.14-0.72 0.48-1.16 0.36-0.45 1.02-0.69 0.67-0.23 1.53-0.23 0.88 0 1.41 0.2 0.55 0.2 0.8 0.52 0.25 0.3 0.36 0.77 0.05 0.3 0.05 1.06l0 1.52q0 1.59 0.08 2.02 0.08 0.42 0.28 0.81l-1.19 0q-0.17-0.36-0.23-0.83zm-0.09-2.56q-0.62 0.27-1.86 0.44 -0.7 0.11-1 0.23 -0.3 0.13-0.45 0.38 -0.16 0.23-0.16 0.53 0 0.45 0.34 0.77 0.34 0.3 1.02 0.3 0.66 0 1.17-0.28 0.52-0.3 0.77-0.8 0.17-0.37 0.17-1.14l0-0.42zm3.1 3.39l0-6.73 1.03 0 0 1.02q0.39-0.72 0.72-0.94 0.34-0.23 0.73-0.23 0.58 0 1.17 0.36l-0.39 1.06q-0.42-0.25-0.83-0.25 -0.37 0-0.69 0.23 -0.3 0.22-0.42 0.63 -0.19 0.61-0.19 1.33l0 3.53 -1.14 0zm4.45 0l0-6.73 1.03 0 0 0.95q0.73-1.11 2.14-1.11 0.61 0 1.11 0.22 0.52 0.22 0.77 0.58 0.27 0.34 0.36 0.84 0.06 0.31 0.06 1.11l0 4.14 -1.14 0 0-4.09q0-0.7-0.14-1.05 -0.12-0.34-0.47-0.55 -0.33-0.22-0.78-0.22 -0.73 0-1.27 0.47 -0.53 0.45-0.53 1.75l0 3.69 -1.14 0zm7.41-7.98l0-1.33 1.14 0 0 1.33 -1.14 0zm0 7.98l0-6.73 1.14 0 0 6.73 -1.14 0zm2.51-2.02l1.13-0.17q0.09 0.67 0.53 1.05 0.44 0.36 1.22 0.36 0.78 0 1.16-0.31 0.39-0.33 0.39-0.77 0-0.39-0.34-0.61 -0.23-0.16-1.17-0.39 -1.25-0.31-1.73-0.55 -0.48-0.23-0.73-0.64 -0.25-0.41-0.25-0.91 0-0.45 0.2-0.83 0.2-0.39 0.56-0.64 0.27-0.2 0.72-0.33 0.47-0.14 1-0.14 0.78 0 1.38 0.23 0.61 0.22 0.89 0.61 0.3 0.39 0.41 1.05l-1.12 0.16q-0.08-0.53-0.44-0.81 -0.36-0.3-1.03-0.3 -0.78 0-1.12 0.27 -0.34 0.25-0.34 0.61 0 0.22 0.14 0.39 0.14 0.19 0.44 0.31 0.17 0.06 1.02 0.28 1.22 0.33 1.69 0.53 0.48 0.2 0.75 0.61 0.28 0.39 0.28 0.97 0 0.58-0.34 1.08 -0.33 0.5-0.95 0.78 -0.62 0.28-1.42 0.28 -1.31 0-2-0.55 -0.69-0.55-0.87-1.62zm7.12 2.02l0-9.31 1.14 0 0 3.34q0.8-0.92 2.02-0.92 0.75 0 1.3 0.3 0.56 0.3 0.8 0.81 0.23 0.52 0.23 1.52l0 4.27 -1.14 0 0-4.27q0-0.86-0.37-1.25 -0.36-0.39-1.05-0.39 -0.5 0-0.95 0.27 -0.45 0.25-0.64 0.7 -0.19 0.45-0.19 1.25l0 3.69 -1.14 0zm6.96-2.8l0-1.14 3.52 0 0 1.14 -3.52 0zm5.16 2.8l0-5.86 -1 0 0-0.87 1 0 0-0.72q0-0.69 0.13-1.02 0.17-0.44 0.58-0.72 0.42-0.28 1.17-0.28 0.48 0 1.06 0.13l-0.17 0.98q-0.36-0.06-0.67-0.06 -0.52 0-0.73 0.23 -0.22 0.22-0.22 0.83l0 0.63 1.31 0 0 0.88 -1.31 0 0 5.86 -1.14 0zm8.05-2.17l1.19 0.14q-0.28 1.05-1.05 1.63 -0.75 0.56-1.92 0.56 -1.48 0-2.36-0.91 -0.86-0.92-0.86-2.56 0-1.7 0.88-2.64 0.89-0.94 2.28-0.94 1.36 0 2.2 0.92 0.86 0.92 0.86 2.58 0 0.11 0 0.31l-5.03 0q0.06 1.11 0.63 1.7 0.56 0.59 1.41 0.59 0.64 0 1.08-0.33 0.45-0.34 0.7-1.06zm-3.75-1.84l3.77 0q-0.08-0.86-0.44-1.28 -0.55-0.66-1.41-0.66 -0.8 0-1.33 0.53 -0.53 0.52-0.59 1.41zm12.44 6.75q-0.95-1.19-1.61-2.78 -0.66-1.61-0.66-3.33 0-1.5 0.5-2.89 0.56-1.61 1.77-3.2l0.81 0q-0.77 1.33-1.02 1.89 -0.39 0.88-0.61 1.83 -0.27 1.19-0.27 2.39 0 3.05 1.89 6.09l-0.81 0zm6.64-5.2l1.13 0.14q-0.17 1.17-0.94 1.83 -0.77 0.66-1.86 0.66 -1.39 0-2.23-0.91 -0.83-0.91-0.83-2.59 0-1.09 0.36-1.91 0.36-0.83 1.09-1.23 0.73-0.41 1.61-0.41 1.09 0 1.8 0.56 0.7 0.55 0.89 1.56l-1.11 0.17q-0.16-0.67-0.56-1.02 -0.39-0.34-0.97-0.34 -0.86 0-1.41 0.63 -0.53 0.61-0.53 1.95 0 1.36 0.52 1.98 0.52 0.61 1.36 0.61 0.67 0 1.13-0.41 0.45-0.42 0.56-1.28zm1.85-0.91q0-1.87 1.03-2.77 0.88-0.75 2.13-0.75 1.39 0 2.27 0.91 0.89 0.91 0.89 2.52 0 1.3-0.39 2.05 -0.39 0.75-1.14 1.17 -0.75 0.41-1.62 0.41 -1.42 0-2.3-0.91 -0.86-0.91-0.86-2.62zm1.17 0q0 1.3 0.56 1.95 0.56 0.64 1.42 0.64 0.84 0 1.41-0.64 0.58-0.66 0.58-1.98 0-1.25-0.58-1.89 -0.56-0.66-1.41-0.66 -0.86 0-1.42 0.64 -0.56 0.64-0.56 1.94zm11.04 3.38l0-0.84q-0.64 1-1.89 1 -0.8 0-1.48-0.44 -0.67-0.45-1.05-1.25 -0.37-0.8-0.37-1.83 0-1.02 0.34-1.83 0.34-0.83 1.02-1.27 0.67-0.44 1.5-0.44 0.61 0 1.08 0.27 0.48 0.25 0.78 0.66l0-3.34 1.14 0 0 9.31 -1.06 0zm-3.61-3.36q0 1.3 0.53 1.94 0.55 0.64 1.3 0.64 0.75 0 1.27-0.61 0.53-0.62 0.53-1.87 0-1.39-0.53-2.03 -0.53-0.66-1.31-0.66 -0.77 0-1.28 0.63 -0.5 0.63-0.5 1.97zm6.91 3.36l0-5.86 -1 0 0-0.87 1 0 0-0.72q0-0.69 0.13-1.02 0.17-0.44 0.58-0.72 0.42-0.28 1.17-0.28 0.48 0 1.06 0.13l-0.17 0.98q-0.36-0.06-0.67-0.06 -0.52 0-0.73 0.23 -0.22 0.22-0.22 0.83l0 0.63 1.31 0 0 0.88 -1.31 0 0 5.86 -1.14 0zm4.67 0l-2.06-6.73 1.19 0 1.08 3.89 0.39 1.44q0.03-0.11 0.36-1.39l1.06-3.94 1.17 0 1.02 3.91 0.34 1.28 0.38-1.3 1.16-3.89 1.11 0 -2.11 6.73 -1.17 0 -1.08-4.03 -0.27-1.16 -1.36 5.19 -1.2 0zm9.14 2.73l-0.83 0q1.91-3.05 1.91-6.09 0-1.2-0.28-2.37 -0.2-0.95-0.59-1.83 -0.25-0.56-1.03-1.91l0.83 0q1.19 1.59 1.77 3.2 0.48 1.39 0.48 2.89 0 1.72-0.66 3.33 -0.66 1.59-1.59 2.78z" fill-rule="nonzero"/><path fill="#cfe2f3" d="m135.75 290.5l0 0c0-3.22 2.61-5.82 5.82-5.82l139.98 0c1.54 0 3.02 0.61 4.12 1.71 1.09 1.09 1.71 2.57 1.71 4.12l0 23.29c0 3.22-2.61 5.82-5.82 5.82l-139.98 0c-3.22 0-5.82-2.61-5.82-5.82z" fill-rule="nonzero"/><path stroke="#000000" stroke-width="1" stroke-linejoin="round" stroke-linecap="butt" d="m135.75 290.5l0 0c0-3.22 2.61-5.82 5.82-5.82l139.98 0c1.54 0 3.02 0.61 4.12 1.71 1.09 1.09 1.71 2.57 1.71 4.12l0 23.29c0 3.22-2.61 5.82-5.82 5.82l-139.98 0c-3.22 0-5.82-2.61-5.82-5.82z" fill-rule="nonzero"/><path fill="#000000" fill-opacity="0" d="m144.47 284.68l134.17 0 0 34.93 -134.17 0z" fill-rule="nonzero"/><path fill="#000000" d="m156.2 306.48l-2.56-6.73 1.2 0 1.44 4.03q0.23 0.66 0.44 1.36 0.16-0.53 0.42-1.28l1.5-4.11 1.17 0 -2.55 6.73 -1.06 0zm9.18-0.83q-0.62 0.53-1.22 0.77 -0.58 0.22-1.25 0.22 -1.12 0-1.72-0.55 -0.59-0.55-0.59-1.39 0-0.48 0.22-0.89 0.23-0.42 0.59-0.67 0.38-0.25 0.83-0.37 0.33-0.08 1.02-0.17 1.38-0.16 2.03-0.39 0.02-0.23 0.02-0.3 0-0.7-0.33-0.98 -0.44-0.39-1.3-0.39 -0.81 0-1.2 0.28 -0.37 0.28-0.56 1l-1.11-0.14q0.14-0.72 0.48-1.16 0.36-0.45 1.02-0.69 0.67-0.23 1.53-0.23 0.88 0 1.41 0.2 0.55 0.2 0.8 0.52 0.25 0.3 0.36 0.77 0.05 0.3 0.05 1.06l0 1.52q0 1.59 0.08 2.02 0.08 0.42 0.28 0.81l-1.19 0q-0.17-0.36-0.23-0.83zm-0.09-2.56q-0.62 0.27-1.86 0.44 -0.7 0.11-1 0.23 -0.3 0.13-0.45 0.38 -0.16 0.23-0.16 0.53 0 0.45 0.34 0.77 0.34 0.3 1.02 0.3 0.66 0 1.17-0.28 0.52-0.3 0.77-0.8 0.17-0.37 0.17-1.14l0-0.42zm3.1 3.39l0-6.73 1.03 0 0 1.02q0.39-0.72 0.72-0.94 0.34-0.23 0.73-0.23 0.58 0 1.17 0.36l-0.39 1.06q-0.42-0.25-0.83-0.25 -0.37 0-0.69 0.23 -0.3 0.22-0.42 0.63 -0.19 0.61-0.19 1.33l0 3.53 -1.14 0zm4.45 0l0-6.73 1.03 0 0 0.95q0.73-1.11 2.14-1.11 0.61 0 1.11 0.22 0.52 0.22 0.77 0.58 0.27 0.34 0.36 0.84 0.06 0.31 0.06 1.11l0 4.14 -1.14 0 0-4.09q0-0.7-0.14-1.05 -0.12-0.34-0.47-0.55 -0.33-0.22-0.78-0.22 -0.73 0-1.27 0.47 -0.53 0.45-0.53 1.75l0 3.69 -1.14 0zm7.41-7.98l0-1.33 1.14 0 0 1.33 -1.14 0zm0 7.98l0-6.73 1.14 0 0 6.73 -1.14 0zm2.51-2.02l1.13-0.17q0.09 0.67 0.53 1.05 0.44 0.36 1.22 0.36 0.78 0 1.16-0.31 0.39-0.33 0.39-0.77 0-0.39-0.34-0.61 -0.23-0.16-1.17-0.39 -1.25-0.31-1.73-0.55 -0.48-0.23-0.73-0.64 -0.25-0.41-0.25-0.91 0-0.45 0.2-0.83 0.2-0.39 0.56-0.64 0.27-0.2 0.72-0.33 0.47-0.14 1-0.14 0.78 0 1.38 0.23 0.61 0.22 0.89 0.61 0.3 0.39 0.41 1.05l-1.12 0.16q-0.08-0.53-0.44-0.81 -0.36-0.3-1.03-0.3 -0.78 0-1.12 0.27 -0.34 0.25-0.34 0.61 0 0.22 0.14 0.39 0.14 0.19 0.44 0.31 0.17 0.06 1.02 0.28 1.22 0.33 1.69 0.53 0.48 0.2 0.75 0.61 0.28 0.39 0.28 0.97 0 0.58-0.34 1.08 -0.33 0.5-0.95 0.78 -0.62 0.28-1.42 0.28 -1.31 0-2-0.55 -0.69-0.55-0.87-1.62zm7.12 2.02l0-9.31 1.14 0 0 3.34q0.8-0.92 2.02-0.92 0.75 0 1.3 0.3 0.56 0.3 0.8 0.81 0.23 0.52 0.23 1.52l0 4.27 -1.14 0 0-4.27q0-0.86-0.37-1.25 -0.36-0.39-1.05-0.39 -0.5 0-0.95 0.27 -0.45 0.25-0.64 0.7 -0.19 0.45-0.19 1.25l0 3.69 -1.14 0zm6.96-2.8l0-1.14 3.52 0 0 1.14 -3.52 0zm5.94 2.8l-1.06 0 0-9.31 1.16 0 0 3.33q0.72-0.91 1.84-0.91 0.63 0 1.17 0.25 0.56 0.25 0.92 0.7 0.36 0.45 0.56 1.09 0.2 0.64 0.2 1.38 0 1.73-0.86 2.69 -0.86 0.94-2.06 0.94 -1.19 0-1.87-1l0 0.84zm-0.02-3.42q0 1.22 0.34 1.75 0.53 0.89 1.45 0.89 0.75 0 1.3-0.66 0.55-0.66 0.55-1.94 0-1.33-0.53-1.95 -0.52-0.62-1.27-0.62 -0.75 0-1.3 0.66 -0.55 0.64-0.55 1.88zm10.99 1.25l1.19 0.14q-0.28 1.05-1.05 1.63 -0.75 0.56-1.92 0.56 -1.48 0-2.36-0.91 -0.86-0.92-0.86-2.56 0-1.7 0.88-2.64 0.89-0.94 2.28-0.94 1.36 0 2.2 0.92 0.86 0.92 0.86 2.58 0 0.11 0 0.31l-5.03 0q0.06 1.11 0.63 1.7 0.56 0.59 1.41 0.59 0.64 0 1.08-0.33 0.45-0.34 0.7-1.06zm-3.75-1.84l3.77 0q-0.08-0.86-0.44-1.28 -0.55-0.66-1.41-0.66 -0.8 0-1.33 0.53 -0.53 0.52-0.59 1.41zm12.44 6.75q-0.95-1.19-1.61-2.78 -0.66-1.61-0.66-3.33 0-1.5 0.5-2.89 0.56-1.61 1.77-3.2l0.81 0q-0.77 1.33-1.02 1.89 -0.39 0.88-0.61 1.83 -0.27 1.19-0.27 2.39 0 3.05 1.89 6.09l-0.81 0zm6.86-4.91l1.19 0.14q-0.28 1.05-1.05 1.63 -0.75 0.56-1.92 0.56 -1.48 0-2.36-0.91 -0.86-0.92-0.86-2.56 0-1.7 0.88-2.64 0.89-0.94 2.28-0.94 1.36 0 2.2 0.92 0.86 0.92 0.86 2.58 0 0.11 0 0.31l-5.03 0q0.06 1.11 0.63 1.7 0.56 0.59 1.41 0.59 0.64 0 1.08-0.33 0.45-0.34 0.7-1.06zm-3.75-1.84l3.77 0q-0.08-0.86-0.44-1.28 -0.55-0.66-1.41-0.66 -0.8 0-1.33 0.53 -0.53 0.52-0.59 1.41zm6.1 2l1.13-0.17q0.09 0.67 0.53 1.05 0.44 0.36 1.22 0.36 0.78 0 1.16-0.31 0.39-0.33 0.39-0.77 0-0.39-0.34-0.61 -0.23-0.16-1.17-0.39 -1.25-0.31-1.73-0.55 -0.48-0.23-0.73-0.64 -0.25-0.41-0.25-0.91 0-0.45 0.2-0.83 0.2-0.39 0.56-0.64 0.27-0.2 0.72-0.33 0.47-0.14 1-0.14 0.78 0 1.38 0.23 0.61 0.22 0.89 0.61 0.3 0.39 0.41 1.05l-1.12 0.16q-0.08-0.53-0.44-0.81 -0.36-0.3-1.03-0.3 -0.78 0-1.12 0.27 -0.34 0.25-0.34 0.61 0 0.22 0.14 0.39 0.14 0.19 0.44 0.31 0.17 0.06 1.02 0.28 1.22 0.33 1.69 0.53 0.48 0.2 0.75 0.61 0.28 0.39 0.28 0.97 0 0.58-0.34 1.08 -0.33 0.5-0.95 0.78 -0.62 0.28-1.42 0.28 -1.31 0-2-0.55 -0.69-0.55-0.87-1.62zm11.51 1.19q-0.62 0.53-1.22 0.77 -0.58 0.22-1.25 0.22 -1.12 0-1.72-0.55 -0.59-0.55-0.59-1.39 0-0.48 0.22-0.89 0.23-0.42 0.59-0.67 0.38-0.25 0.83-0.37 0.33-0.08 1.02-0.17 1.38-0.16 2.03-0.39 0.02-0.23 0.02-0.3 0-0.7-0.33-0.98 -0.44-0.39-1.3-0.39 -0.81 0-1.2 0.28 -0.37 0.28-0.56 1l-1.11-0.14q0.14-0.72 0.48-1.16 0.36-0.45 1.02-0.69 0.67-0.23 1.53-0.23 0.88 0 1.41 0.2 0.55 0.2 0.8 0.52 0.25 0.3 0.36 0.77 0.05 0.3 0.05 1.06l0 1.52q0 1.59 0.08 2.02 0.08 0.42 0.28 0.81l-1.19 0q-0.17-0.36-0.23-0.83zm-0.09-2.56q-0.62 0.27-1.86 0.44 -0.7 0.11-1 0.23 -0.3 0.13-0.45 0.38 -0.16 0.23-0.16 0.53 0 0.45 0.34 0.77 0.34 0.3 1.02 0.3 0.66 0 1.17-0.28 0.52-0.3 0.77-0.8 0.17-0.37 0.17-1.14l0-0.42zm3.12 3.39l0-6.73 1.02 0 0 0.94q0.33-0.5 0.84-0.8 0.53-0.3 1.2-0.3 0.75 0 1.22 0.31 0.48 0.31 0.69 0.86 0.8-1.17 2.08-1.17 1 0 1.53 0.56 0.55 0.55 0.55 1.7l0 4.63 -1.12 0 0-4.25q0-0.69-0.11-0.98 -0.11-0.3-0.41-0.48 -0.3-0.19-0.69-0.19 -0.72 0-1.19 0.48 -0.47 0.47-0.47 1.5l0 3.92 -1.14 0 0-4.37q0-0.77-0.28-1.14 -0.28-0.39-0.91-0.39 -0.48 0-0.89 0.27 -0.41 0.25-0.59 0.73 -0.19 0.48-0.19 1.41l0 3.5 -1.14 0zm10.65-2.02l1.13-0.17q0.09 0.67 0.53 1.05 0.44 0.36 1.22 0.36 0.78 0 1.16-0.31 0.39-0.33 0.39-0.77 0-0.39-0.34-0.61 -0.23-0.16-1.17-0.39 -1.25-0.31-1.73-0.55 -0.48-0.23-0.73-0.64 -0.25-0.41-0.25-0.91 0-0.45 0.2-0.83 0.2-0.39 0.56-0.64 0.27-0.2 0.72-0.33 0.47-0.14 1-0.14 0.78 0 1.38 0.23 0.61 0.22 0.89 0.61 0.3 0.39 0.41 1.05l-1.12 0.16q-0.08-0.53-0.44-0.81 -0.36-0.3-1.03-0.3 -0.78 0-1.12 0.27 -0.34 0.25-0.34 0.61 0 0.22 0.14 0.39 0.14 0.19 0.44 0.31 0.17 0.06 1.02 0.28 1.22 0.33 1.69 0.53 0.48 0.2 0.75 0.61 0.28 0.39 0.28 0.97 0 0.58-0.34 1.08 -0.33 0.5-0.95 0.78 -0.62 0.28-1.42 0.28 -1.31 0-2-0.55 -0.69-0.55-0.87-1.62zm7.87 4.75l-0.83 0q1.91-3.05 1.91-6.09 0-1.2-0.28-2.37 -0.2-0.95-0.59-1.83 -0.25-0.56-1.03-1.91l0.83 0q1.19 1.59 1.77 3.2 0.48 1.39 0.48 2.89 0 1.72-0.66 3.33 -0.66 1.59-1.59 2.78z" fill-rule="nonzero"/><path fill="#cfe2f3" d="m461.35 290.5l0 0c0-3.22 2.61-5.82 5.82-5.82l139.98 0c1.54 0 3.02 0.61 4.12 1.71 1.09 1.09 1.71 2.57 1.71 4.12l0 23.29c0 3.22-2.61 5.82-5.82 5.82l-139.98 0c-3.22 0-5.82-2.61-5.82-5.82z" fill-rule="nonzero"/><path stroke="#000000" stroke-width="1" stroke-linejoin="round" stroke-linecap="butt" d="m461.35 290.5l0 0c0-3.22 2.61-5.82 5.82-5.82l139.98 0c1.54 0 3.02 0.61 4.12 1.71 1.09 1.09 1.71 2.57 1.71 4.12l0 23.29c0 3.22-2.61 5.82-5.82 5.82l-139.98 0c-3.22 0-5.82-2.61-5.82-5.82z" fill-rule="nonzero"/><path fill="#000000" fill-opacity="0" d="m470.08 284.68l134.17 0 0 34.93 -134.17 0z" fill-rule="nonzero"/><path fill="#000000" d="m481.81 306.48l-2.56-6.73 1.2 0 1.44 4.03q0.23 0.66 0.44 1.36 0.16-0.53 0.42-1.28l1.5-4.11 1.17 0 -2.55 6.73 -1.06 0zm9.18-0.83q-0.62 0.53-1.22 0.77 -0.58 0.22-1.25 0.22 -1.12 0-1.72-0.55 -0.59-0.55-0.59-1.39 0-0.48 0.22-0.89 0.23-0.42 0.59-0.67 0.38-0.25 0.83-0.37 0.33-0.08 1.02-0.17 1.38-0.16 2.03-0.39 0.02-0.23 0.02-0.3 0-0.7-0.33-0.98 -0.44-0.39-1.3-0.39 -0.81 0-1.2 0.28 -0.37 0.28-0.56 1l-1.11-0.14q0.14-0.72 0.48-1.16 0.36-0.45 1.02-0.69 0.67-0.23 1.53-0.23 0.88 0 1.41 0.2 0.55 0.2 0.8 0.52 0.25 0.3 0.36 0.77 0.05 0.3 0.05 1.06l0 1.52q0 1.59 0.08 2.02 0.08 0.42 0.28 0.81l-1.19 0q-0.17-0.36-0.23-0.83zm-0.09-2.56q-0.62 0.27-1.86 0.44 -0.7 0.11-1 0.23 -0.3 0.13-0.45 0.38 -0.16 0.23-0.16 0.53 0 0.45 0.34 0.77 0.34 0.3 1.02 0.3 0.66 0 1.17-0.28 0.52-0.3 0.77-0.8 0.17-0.37 0.17-1.14l0-0.42zm3.1 3.39l0-6.73 1.03 0 0 1.02q0.39-0.72 0.72-0.94 0.34-0.23 0.73-0.23 0.58 0 1.17 0.36l-0.39 1.06q-0.42-0.25-0.83-0.25 -0.37 0-0.69 0.23 -0.3 0.22-0.42 0.63 -0.19 0.61-0.19 1.33l0 3.53 -1.14 0zm4.45 0l0-6.73 1.03 0 0 0.95q0.73-1.11 2.14-1.11 0.61 0 1.11 0.22 0.52 0.22 0.77 0.58 0.27 0.34 0.36 0.84 0.06 0.31 0.06 1.11l0 4.14 -1.14 0 0-4.09q0-0.7-0.14-1.05 -0.12-0.34-0.47-0.55 -0.33-0.22-0.78-0.22 -0.73 0-1.27 0.47 -0.53 0.45-0.53 1.75l0 3.69 -1.14 0zm7.41-7.98l0-1.33 1.14 0 0 1.33 -1.14 0zm0 7.98l0-6.73 1.14 0 0 6.73 -1.14 0zm2.51-2.02l1.13-0.17q0.09 0.67 0.53 1.05 0.44 0.36 1.22 0.36 0.78 0 1.16-0.31 0.39-0.33 0.39-0.77 0-0.39-0.34-0.61 -0.23-0.16-1.17-0.39 -1.25-0.31-1.73-0.55 -0.48-0.23-0.73-0.64 -0.25-0.41-0.25-0.91 0-0.45 0.2-0.83 0.2-0.39 0.56-0.64 0.27-0.2 0.72-0.33 0.47-0.14 1-0.14 0.78 0 1.38 0.23 0.61 0.22 0.89 0.61 0.3 0.39 0.41 1.05l-1.12 0.16q-0.08-0.53-0.44-0.81 -0.36-0.3-1.03-0.3 -0.78 0-1.12 0.27 -0.34 0.25-0.34 0.61 0 0.22 0.14 0.39 0.14 0.19 0.44 0.31 0.17 0.06 1.02 0.28 1.22 0.33 1.69 0.53 0.48 0.2 0.75 0.61 0.28 0.39 0.28 0.97 0 0.58-0.34 1.08 -0.33 0.5-0.95 0.78 -0.62 0.28-1.42 0.28 -1.31 0-2-0.55 -0.69-0.55-0.87-1.62zm7.12 2.02l0-9.31 1.14 0 0 3.34q0.8-0.92 2.02-0.92 0.75 0 1.3 0.3 0.56 0.3 0.8 0.81 0.23 0.52 0.23 1.52l0 4.27 -1.14 0 0-4.27q0-0.86-0.37-1.25 -0.36-0.39-1.05-0.39 -0.5 0-0.95 0.27 -0.45 0.25-0.64 0.7 -0.19 0.45-0.19 1.25l0 3.69 -1.14 0zm6.96-2.8l0-1.14 3.52 0 0 1.14 -3.52 0zm5.94 2.8l-1.06 0 0-9.31 1.16 0 0 3.33q0.72-0.91 1.84-0.91 0.63 0 1.17 0.25 0.56 0.25 0.92 0.7 0.36 0.45 0.56 1.09 0.2 0.64 0.2 1.38 0 1.73-0.86 2.69 -0.86 0.94-2.06 0.94 -1.19 0-1.87-1l0 0.84zm-0.02-3.42q0 1.22 0.34 1.75 0.53 0.89 1.45 0.89 0.75 0 1.3-0.66 0.55-0.66 0.55-1.94 0-1.33-0.53-1.95 -0.52-0.62-1.27-0.62 -0.75 0-1.3 0.66 -0.55 0.64-0.55 1.88zm10.99 1.25l1.19 0.14q-0.28 1.05-1.05 1.63 -0.75 0.56-1.92 0.56 -1.48 0-2.36-0.91 -0.86-0.92-0.86-2.56 0-1.7 0.88-2.64 0.89-0.94 2.28-0.94 1.36 0 2.2 0.92 0.86 0.92 0.86 2.58 0 0.11 0 0.31l-5.03 0q0.06 1.11 0.63 1.7 0.56 0.59 1.41 0.59 0.64 0 1.08-0.33 0.45-0.34 0.7-1.06zm-3.75-1.84l3.77 0q-0.08-0.86-0.44-1.28 -0.55-0.66-1.41-0.66 -0.8 0-1.33 0.53 -0.53 0.52-0.59 1.41zm12.44 6.75q-0.95-1.19-1.61-2.78 -0.66-1.61-0.66-3.33 0-1.5 0.5-2.89 0.56-1.61 1.77-3.2l0.81 0q-0.77 1.33-1.02 1.89 -0.39 0.88-0.61 1.83 -0.27 1.19-0.27 2.39 0 3.05 1.89 6.09l-0.81 0zm6.67-2.73l0-0.98q-0.8 1.14-2.14 1.14 -0.59 0-1.12-0.23 -0.52-0.23-0.77-0.58 -0.25-0.34-0.34-0.84 -0.08-0.33-0.08-1.06l0-4.17 1.14 0 0 3.73q0 0.89 0.08 1.2 0.11 0.45 0.45 0.72 0.34 0.25 0.86 0.25 0.52 0 0.97-0.27 0.45-0.27 0.64-0.72 0.19-0.45 0.19-1.31l0-3.61 1.14 0 0 6.73 -1.02 0zm2.96 0l0-9.31 1.14 0 0 9.31 -1.14 0zm2.54-2.02l1.13-0.17q0.09 0.67 0.53 1.05 0.44 0.36 1.22 0.36 0.78 0 1.16-0.31 0.39-0.33 0.39-0.77 0-0.39-0.34-0.61 -0.23-0.16-1.17-0.39 -1.25-0.31-1.73-0.55 -0.48-0.23-0.73-0.64 -0.25-0.41-0.25-0.91 0-0.45 0.2-0.83 0.2-0.39 0.56-0.64 0.27-0.2 0.72-0.33 0.47-0.14 1-0.14 0.78 0 1.38 0.23 0.61 0.22 0.89 0.61 0.3 0.39 0.41 1.05l-1.12 0.16q-0.08-0.53-0.44-0.81 -0.36-0.3-1.03-0.3 -0.78 0-1.12 0.27 -0.34 0.25-0.34 0.61 0 0.22 0.14 0.39 0.14 0.19 0.44 0.31 0.17 0.06 1.02 0.28 1.22 0.33 1.69 0.53 0.48 0.2 0.75 0.61 0.28 0.39 0.28 0.97 0 0.58-0.34 1.08 -0.33 0.5-0.95 0.78 -0.62 0.28-1.42 0.28 -1.31 0-2-0.55 -0.69-0.55-0.87-1.62zm7.38 2.02l0-5.86 -1 0 0-0.87 1 0 0-0.72q0-0.69 0.13-1.02 0.17-0.44 0.58-0.72 0.42-0.28 1.17-0.28 0.48 0 1.06 0.13l-0.17 0.98q-0.36-0.06-0.67-0.06 -0.52 0-0.73 0.23 -0.22 0.22-0.22 0.83l0 0.63 1.31 0 0 0.88 -1.31 0 0 5.86 -1.14 0zm3.02-3.37q0-1.87 1.03-2.77 0.88-0.75 2.13-0.75 1.39 0 2.27 0.91 0.89 0.91 0.89 2.52 0 1.3-0.39 2.05 -0.39 0.75-1.14 1.17 -0.75 0.41-1.62 0.41 -1.42 0-2.3-0.91 -0.86-0.91-0.86-2.62zm1.17 0q0 1.3 0.56 1.95 0.56 0.64 1.42 0.64 0.84 0 1.41-0.64 0.58-0.66 0.58-1.98 0-1.25-0.58-1.89 -0.56-0.66-1.41-0.66 -0.86 0-1.42 0.64 -0.56 0.64-0.56 1.94zm7.41 6.11l-0.83 0q1.91-3.05 1.91-6.09 0-1.2-0.28-2.37 -0.2-0.95-0.59-1.83 -0.25-0.56-1.03-1.91l0.83 0q1.19 1.59 1.77 3.2 0.48 1.39 0.48 2.89 0 1.72-0.66 3.33 -0.66 1.59-1.59 2.78z" fill-rule="nonzero"/><path fill="#cfe2f3" d="m624.15 290.5l0 0c0-3.22 2.61-5.82 5.82-5.82l139.98 0c1.54 0 3.02 0.61 4.12 1.71 1.09 1.09 1.71 2.57 1.71 4.12l0 23.29c0 3.22-2.61 5.82-5.82 5.82l-139.98 0c-3.22 0-5.82-2.61-5.82-5.82z" fill-rule="nonzero"/><path stroke="#000000" stroke-width="1" stroke-linejoin="round" stroke-linecap="butt" d="m624.15 290.5l0 0c0-3.22 2.61-5.82 5.82-5.82l139.98 0c1.54 0 3.02 0.61 4.12 1.71 1.09 1.09 1.71 2.57 1.71 4.12l0 23.29c0 3.22-2.61 5.82-5.82 5.82l-139.98 0c-3.22 0-5.82-2.61-5.82-5.82z" fill-rule="nonzero"/><path fill="#000000" fill-opacity="0" d="m632.88 284.68l134.17 0 0 34.93 -134.17 0z" fill-rule="nonzero"/><path fill="#000000" d="m644.61 306.48l-2.56-6.73 1.2 0 1.44 4.03q0.23 0.66 0.44 1.36 0.16-0.53 0.42-1.28l1.5-4.11 1.17 0 -2.55 6.73 -1.06 0zm9.18-0.83q-0.62 0.53-1.22 0.77 -0.58 0.22-1.25 0.22 -1.12 0-1.72-0.55 -0.59-0.55-0.59-1.39 0-0.48 0.22-0.89 0.23-0.42 0.59-0.67 0.38-0.25 0.83-0.37 0.33-0.08 1.02-0.17 1.38-0.16 2.03-0.39 0.02-0.23 0.02-0.3 0-0.7-0.33-0.98 -0.44-0.39-1.3-0.39 -0.81 0-1.2 0.28 -0.37 0.28-0.56 1l-1.11-0.14q0.14-0.72 0.48-1.16 0.36-0.45 1.02-0.69 0.67-0.23 1.53-0.23 0.88 0 1.41 0.2 0.55 0.2 0.8 0.52 0.25 0.3 0.36 0.77 0.05 0.3 0.05 1.06l0 1.52q0 1.59 0.08 2.02 0.08 0.42 0.28 0.81l-1.19 0q-0.17-0.36-0.23-0.83zm-0.09-2.56q-0.62 0.27-1.86 0.44 -0.7 0.11-1 0.23 -0.3 0.13-0.45 0.38 -0.16 0.23-0.16 0.53 0 0.45 0.34 0.77 0.34 0.3 1.02 0.3 0.66 0 1.17-0.28 0.52-0.3 0.77-0.8 0.17-0.37 0.17-1.14l0-0.42zm3.1 3.39l0-6.73 1.03 0 0 1.02q0.39-0.72 0.72-0.94 0.34-0.23 0.73-0.23 0.58 0 1.17 0.36l-0.39 1.06q-0.42-0.25-0.83-0.25 -0.37 0-0.69 0.23 -0.3 0.22-0.42 0.63 -0.19 0.61-0.19 1.33l0 3.53 -1.14 0zm4.45 0l0-6.73 1.03 0 0 0.95q0.73-1.11 2.14-1.11 0.61 0 1.11 0.22 0.52 0.22 0.77 0.58 0.27 0.34 0.36 0.84 0.06 0.31 0.06 1.11l0 4.14 -1.14 0 0-4.09q0-0.7-0.14-1.05 -0.12-0.34-0.47-0.55 -0.33-0.22-0.78-0.22 -0.73 0-1.27 0.47 -0.53 0.45-0.53 1.75l0 3.69 -1.14 0zm7.41-7.98l0-1.33 1.14 0 0 1.33 -1.14 0zm0 7.98l0-6.73 1.14 0 0 6.73 -1.14 0zm2.51-2.02l1.13-0.17q0.09 0.67 0.53 1.05 0.44 0.36 1.22 0.36 0.78 0 1.16-0.31 0.39-0.33 0.39-0.77 0-0.39-0.34-0.61 -0.23-0.16-1.17-0.39 -1.25-0.31-1.73-0.55 -0.48-0.23-0.73-0.64 -0.25-0.41-0.25-0.91 0-0.45 0.2-0.83 0.2-0.39 0.56-0.64 0.27-0.2 0.72-0.33 0.47-0.14 1-0.14 0.78 0 1.38 0.23 0.61 0.22 0.89 0.61 0.3 0.39 0.41 1.05l-1.12 0.16q-0.08-0.53-0.44-0.81 -0.36-0.3-1.03-0.3 -0.78 0-1.12 0.27 -0.34 0.25-0.34 0.61 0 0.22 0.14 0.39 0.14 0.19 0.44 0.31 0.17 0.06 1.02 0.28 1.22 0.33 1.69 0.53 0.48 0.2 0.75 0.61 0.28 0.39 0.28 0.97 0 0.58-0.34 1.08 -0.33 0.5-0.95 0.78 -0.62 0.28-1.42 0.28 -1.31 0-2-0.55 -0.69-0.55-0.87-1.62zm7.12 2.02l0-9.31 1.14 0 0 3.34q0.8-0.92 2.02-0.92 0.75 0 1.3 0.3 0.56 0.3 0.8 0.81 0.23 0.52 0.23 1.52l0 4.27 -1.14 0 0-4.27q0-0.86-0.37-1.25 -0.36-0.39-1.05-0.39 -0.5 0-0.95 0.27 -0.45 0.25-0.64 0.7 -0.19 0.45-0.19 1.25l0 3.69 -1.14 0zm6.96-2.8l0-1.14 3.52 0 0 1.14 -3.52 0zm5.94 2.8l-1.06 0 0-9.31 1.16 0 0 3.33q0.72-0.91 1.84-0.91 0.63 0 1.17 0.25 0.56 0.25 0.92 0.7 0.36 0.45 0.56 1.09 0.2 0.64 0.2 1.38 0 1.73-0.86 2.69 -0.86 0.94-2.06 0.94 -1.19 0-1.87-1l0 0.84zm-0.02-3.42q0 1.22 0.34 1.75 0.53 0.89 1.45 0.89 0.75 0 1.3-0.66 0.55-0.66 0.55-1.94 0-1.33-0.53-1.95 -0.52-0.62-1.27-0.62 -0.75 0-1.3 0.66 -0.55 0.64-0.55 1.88zm10.99 1.25l1.19 0.14q-0.28 1.05-1.05 1.63 -0.75 0.56-1.92 0.56 -1.48 0-2.36-0.91 -0.86-0.92-0.86-2.56 0-1.7 0.88-2.64 0.89-0.94 2.28-0.94 1.36 0 2.2 0.92 0.86 0.92 0.86 2.58 0 0.11 0 0.31l-5.03 0q0.06 1.11 0.63 1.7 0.56 0.59 1.41 0.59 0.64 0 1.08-0.33 0.45-0.34 0.7-1.06zm-3.75-1.84l3.77 0q-0.08-0.86-0.44-1.28 -0.55-0.66-1.41-0.66 -0.8 0-1.33 0.53 -0.53 0.52-0.59 1.41zm12.44 6.75q-0.95-1.19-1.61-2.78 -0.66-1.61-0.66-3.33 0-1.5 0.5-2.89 0.56-1.61 1.77-3.2l0.81 0q-0.77 1.33-1.02 1.89 -0.39 0.88-0.61 1.83 -0.27 1.19-0.27 2.39 0 3.05 1.89 6.09l-0.81 0zm6.64-5.2l1.13 0.14q-0.17 1.17-0.94 1.83 -0.77 0.66-1.86 0.66 -1.39 0-2.23-0.91 -0.83-0.91-0.83-2.59 0-1.09 0.36-1.91 0.36-0.83 1.09-1.23 0.73-0.41 1.61-0.41 1.09 0 1.8 0.56 0.7 0.55 0.89 1.56l-1.11 0.17q-0.16-0.67-0.56-1.02 -0.39-0.34-0.97-0.34 -0.86 0-1.41 0.63 -0.53 0.61-0.53 1.95 0 1.36 0.52 1.98 0.52 0.61 1.36 0.61 0.67 0 1.13-0.41 0.45-0.42 0.56-1.28zm1.85-0.91q0-1.87 1.03-2.77 0.88-0.75 2.13-0.75 1.39 0 2.27 0.91 0.89 0.91 0.89 2.52 0 1.3-0.39 2.05 -0.39 0.75-1.14 1.17 -0.75 0.41-1.62 0.41 -1.42 0-2.3-0.91 -0.86-0.91-0.86-2.62zm1.17 0q0 1.3 0.56 1.95 0.56 0.64 1.42 0.64 0.84 0 1.41-0.64 0.58-0.66 0.58-1.98 0-1.25-0.58-1.89 -0.56-0.66-1.41-0.66 -0.86 0-1.42 0.64 -0.56 0.64-0.56 1.94zm11.04 3.38l0-0.84q-0.64 1-1.89 1 -0.8 0-1.48-0.44 -0.67-0.45-1.05-1.25 -0.37-0.8-0.37-1.83 0-1.02 0.34-1.83 0.34-0.83 1.02-1.27 0.67-0.44 1.5-0.44 0.61 0 1.08 0.27 0.48 0.25 0.78 0.66l0-3.34 1.14 0 0 9.31 -1.06 0zm-3.61-3.36q0 1.3 0.53 1.94 0.55 0.64 1.3 0.64 0.75 0 1.27-0.61 0.53-0.62 0.53-1.87 0-1.39-0.53-2.03 -0.53-0.66-1.31-0.66 -0.77 0-1.28 0.63 -0.5 0.63-0.5 1.97zm6.91 3.36l0-5.86 -1 0 0-0.87 1 0 0-0.72q0-0.69 0.13-1.02 0.17-0.44 0.58-0.72 0.42-0.28 1.17-0.28 0.48 0 1.06 0.13l-0.17 0.98q-0.36-0.06-0.67-0.06 -0.52 0-0.73 0.23 -0.22 0.22-0.22 0.83l0 0.63 1.31 0 0 0.88 -1.31 0 0 5.86 -1.14 0zm4.67 0l-2.06-6.73 1.19 0 1.08 3.89 0.39 1.44q0.03-0.11 0.36-1.39l1.06-3.94 1.17 0 1.02 3.91 0.34 1.28 0.38-1.3 1.16-3.89 1.11 0 -2.11 6.73 -1.17 0 -1.08-4.03 -0.27-1.16 -1.36 5.19 -1.2 0zm9.14 2.73l-0.83 0q1.91-3.05 1.91-6.09 0-1.2-0.28-2.37 -0.2-0.95-0.59-1.83 -0.25-0.56-1.03-1.91l0.83 0q1.19 1.59 1.77 3.2 0.48 1.39 0.48 2.89 0 1.72-0.66 3.33 -0.66 1.59-1.59 2.78z" fill-rule="nonzero"/><path fill="#cfe2f3" d="m298.55 375.35l0 0c0-3.22 2.61-5.82 5.82-5.82l139.98 0c1.54 0 3.02 0.61 4.12 1.71 1.09 1.09 1.71 2.57 1.71 4.12l0 23.29c0 3.22-2.61 5.82-5.82 5.82l-139.98 0c-3.22 0-5.82-2.61-5.82-5.82z" fill-rule="nonzero"/><path stroke="#000000" stroke-width="1" stroke-linejoin="round" stroke-linecap="butt" d="m298.55 375.35l0 0c0-3.22 2.61-5.82 5.82-5.82l139.98 0c1.54 0 3.02 0.61 4.12 1.71 1.09 1.09 1.71 2.57 1.71 4.12l0 23.29c0 3.22-2.61 5.82-5.82 5.82l-139.98 0c-3.22 0-5.82-2.61-5.82-5.82z" fill-rule="nonzero"/><path fill="#000000" fill-opacity="0" d="m307.27 369.53l134.17 0 0 34.93 -134.17 0z" fill-rule="nonzero"/><path fill="#000000" d="m319.01 391.33l-2.56-6.73 1.2 0 1.44 4.03q0.23 0.66 0.44 1.36 0.16-0.53 0.42-1.28l1.5-4.11 1.17 0 -2.55 6.73 -1.06 0zm9.18-0.83q-0.62 0.53-1.22 0.77 -0.58 0.22-1.25 0.22 -1.12 0-1.72-0.55 -0.59-0.55-0.59-1.39 0-0.48 0.22-0.89 0.23-0.42 0.59-0.67 0.38-0.25 0.83-0.37 0.33-0.08 1.02-0.17 1.38-0.16 2.03-0.39 0.02-0.23 0.02-0.3 0-0.7-0.33-0.98 -0.44-0.39-1.3-0.39 -0.81 0-1.2 0.28 -0.37 0.28-0.56 1l-1.11-0.14q0.14-0.72 0.48-1.16 0.36-0.45 1.02-0.69 0.67-0.23 1.53-0.23 0.88 0 1.41 0.2 0.55 0.2 0.8 0.52 0.25 0.3 0.36 0.77 0.05 0.3 0.05 1.06l0 1.52q0 1.59 0.08 2.02 0.08 0.42 0.28 0.81l-1.19 0q-0.17-0.36-0.23-0.83zm-0.09-2.56q-0.62 0.27-1.86 0.44 -0.7 0.11-1 0.23 -0.3 0.13-0.45 0.38 -0.16 0.23-0.16 0.53 0 0.45 0.34 0.77 0.34 0.3 1.02 0.3 0.66 0 1.17-0.28 0.52-0.3 0.77-0.8 0.17-0.37 0.17-1.14l0-0.42zm3.1 3.39l0-6.73 1.03 0 0 1.02q0.39-0.72 0.72-0.94 0.34-0.23 0.73-0.23 0.58 0 1.17 0.36l-0.39 1.06q-0.42-0.25-0.83-0.25 -0.37 0-0.69 0.23 -0.3 0.22-0.42 0.63 -0.19 0.61-0.19 1.33l0 3.53 -1.14 0zm4.45 0l0-6.73 1.03 0 0 0.95q0.73-1.11 2.14-1.11 0.61 0 1.11 0.22 0.52 0.22 0.77 0.58 0.27 0.34 0.36 0.84 0.06 0.31 0.06 1.11l0 4.14 -1.14 0 0-4.09q0-0.7-0.14-1.05 -0.12-0.34-0.47-0.55 -0.33-0.22-0.78-0.22 -0.73 0-1.27 0.47 -0.53 0.45-0.53 1.75l0 3.69 -1.14 0zm7.41-7.98l0-1.33 1.14 0 0 1.33 -1.14 0zm0 7.98l0-6.73 1.14 0 0 6.73 -1.14 0zm2.51-2.02l1.13-0.17q0.09 0.67 0.53 1.05 0.44 0.36 1.22 0.36 0.78 0 1.16-0.31 0.39-0.33 0.39-0.77 0-0.39-0.34-0.61 -0.23-0.16-1.17-0.39 -1.25-0.31-1.73-0.55 -0.48-0.23-0.73-0.64 -0.25-0.41-0.25-0.91 0-0.45 0.2-0.83 0.2-0.39 0.56-0.64 0.27-0.2 0.72-0.33 0.47-0.14 1-0.14 0.78 0 1.38 0.23 0.61 0.22 0.89 0.61 0.3 0.39 0.41 1.05l-1.12 0.16q-0.08-0.53-0.44-0.81 -0.36-0.3-1.03-0.3 -0.78 0-1.12 0.27 -0.34 0.25-0.34 0.61 0 0.22 0.14 0.39 0.14 0.19 0.44 0.31 0.17 0.06 1.02 0.28 1.22 0.33 1.69 0.53 0.48 0.2 0.75 0.61 0.28 0.39 0.28 0.97 0 0.58-0.34 1.08 -0.33 0.5-0.95 0.78 -0.62 0.28-1.42 0.28 -1.31 0-2-0.55 -0.69-0.55-0.87-1.62zm7.12 2.02l0-9.31 1.14 0 0 3.34q0.8-0.92 2.02-0.92 0.75 0 1.3 0.3 0.56 0.3 0.8 0.81 0.23 0.52 0.23 1.52l0 4.27 -1.14 0 0-4.27q0-0.86-0.37-1.25 -0.36-0.39-1.05-0.39 -0.5 0-0.95 0.27 -0.45 0.25-0.64 0.7 -0.19 0.45-0.19 1.25l0 3.69 -1.14 0zm6.96-2.8l0-1.14 3.52 0 0 1.14 -3.52 0zm5.94 2.8l-1.06 0 0-9.31 1.16 0 0 3.33q0.72-0.91 1.84-0.91 0.63 0 1.17 0.25 0.56 0.25 0.92 0.7 0.36 0.45 0.56 1.09 0.2 0.64 0.2 1.38 0 1.73-0.86 2.69 -0.86 0.94-2.06 0.94 -1.19 0-1.87-1l0 0.84zm-0.02-3.42q0 1.22 0.34 1.75 0.53 0.89 1.45 0.89 0.75 0 1.3-0.66 0.55-0.66 0.55-1.94 0-1.33-0.53-1.95 -0.52-0.62-1.27-0.62 -0.75 0-1.3 0.66 -0.55 0.64-0.55 1.88zm10.99 1.25l1.19 0.14q-0.28 1.05-1.05 1.63 -0.75 0.56-1.92 0.56 -1.48 0-2.36-0.91 -0.86-0.92-0.86-2.56 0-1.7 0.88-2.64 0.89-0.94 2.28-0.94 1.36 0 2.2 0.92 0.86 0.92 0.86 2.58 0 0.11 0 0.31l-5.03 0q0.06 1.11 0.63 1.7 0.56 0.59 1.41 0.59 0.64 0 1.08-0.33 0.45-0.34 0.7-1.06zm-3.75-1.84l3.77 0q-0.08-0.86-0.44-1.28 -0.55-0.66-1.41-0.66 -0.8 0-1.33 0.53 -0.53 0.52-0.59 1.41zm12.44 6.75q-0.95-1.19-1.61-2.78 -0.66-1.61-0.66-3.33 0-1.5 0.5-2.89 0.56-1.61 1.77-3.2l0.81 0q-0.77 1.33-1.02 1.89 -0.39 0.88-0.61 1.83 -0.27 1.19-0.27 2.39 0 3.05 1.89 6.09l-0.81 0zm6.86-4.91l1.19 0.14q-0.28 1.05-1.05 1.63 -0.75 0.56-1.92 0.56 -1.48 0-2.36-0.91 -0.86-0.92-0.86-2.56 0-1.7 0.88-2.64 0.89-0.94 2.28-0.94 1.36 0 2.2 0.92 0.86 0.92 0.86 2.58 0 0.11 0 0.31l-5.03 0q0.06 1.11 0.63 1.7 0.56 0.59 1.41 0.59 0.64 0 1.08-0.33 0.45-0.34 0.7-1.06zm-3.75-1.84l3.77 0q-0.08-0.86-0.44-1.28 -0.55-0.66-1.41-0.66 -0.8 0-1.33 0.53 -0.53 0.52-0.59 1.41zm10.85 6.59l0-3.3q-0.27 0.38-0.75 0.63 -0.48 0.25-1.02 0.25 -1.2 0-2.08-0.95 -0.86-0.97-0.86-2.64 0-1.02 0.34-1.81 0.36-0.81 1.03-1.22 0.67-0.42 1.47-0.42 1.25 0 1.97 1.05l0-0.89 1.03 0 0 9.31 -1.14 0zm-3.53-5.97q0 1.3 0.55 1.95 0.55 0.66 1.31 0.66 0.73 0 1.25-0.62 0.53-0.62 0.53-1.87 0-1.36-0.56-2.03 -0.55-0.69-1.3-0.69 -0.73 0-1.27 0.64 -0.52 0.63-0.52 1.97zm6.65-4.59l0-1.33 1.14 0 0 1.33 -1.14 0zm0 7.98l0-6.73 1.14 0 0 6.73 -1.14 0zm7.35-0.83q-0.62 0.53-1.22 0.77 -0.58 0.22-1.25 0.22 -1.12 0-1.72-0.55 -0.59-0.55-0.59-1.39 0-0.48 0.22-0.89 0.23-0.42 0.59-0.67 0.38-0.25 0.83-0.37 0.33-0.08 1.02-0.17 1.38-0.16 2.03-0.39 0.02-0.23 0.02-0.3 0-0.7-0.33-0.98 -0.44-0.39-1.3-0.39 -0.81 0-1.2 0.28 -0.37 0.28-0.56 1l-1.11-0.14q0.14-0.72 0.48-1.16 0.36-0.45 1.02-0.69 0.67-0.23 1.53-0.23 0.88 0 1.41 0.2 0.55 0.2 0.8 0.52 0.25 0.3 0.36 0.77 0.05 0.3 0.05 1.06l0 1.52q0 1.59 0.08 2.02 0.08 0.42 0.28 0.81l-1.19 0q-0.17-0.36-0.23-0.83zm-0.09-2.56q-0.62 0.27-1.86 0.44 -0.7 0.11-1 0.23 -0.3 0.13-0.45 0.38 -0.16 0.23-0.16 0.53 0 0.45 0.34 0.77 0.34 0.3 1.02 0.3 0.66 0 1.17-0.28 0.52-0.3 0.77-0.8 0.17-0.37 0.17-1.14l0-0.42zm7.49 3.39l0-0.84q-0.64 1-1.89 1 -0.8 0-1.48-0.44 -0.67-0.45-1.05-1.25 -0.37-0.8-0.37-1.83 0-1.02 0.34-1.83 0.34-0.83 1.02-1.27 0.67-0.44 1.5-0.44 0.61 0 1.08 0.27 0.48 0.25 0.78 0.66l0-3.34 1.14 0 0 9.31 -1.06 0zm-3.61-3.36q0 1.3 0.53 1.94 0.55 0.64 1.3 0.64 0.75 0 1.27-0.61 0.53-0.62 0.53-1.87 0-1.39-0.53-2.03 -0.53-0.66-1.31-0.66 -0.77 0-1.28 0.63 -0.5 0.63-0.5 1.97zm7.4 6.09l-0.83 0q1.91-3.05 1.91-6.09 0-1.2-0.28-2.37 -0.2-0.95-0.59-1.83 -0.25-0.56-1.03-1.91l0.83 0q1.19 1.59 1.77 3.2 0.48 1.39 0.48 2.89 0 1.72-0.66 3.33 -0.66 1.59-1.59 2.78z" fill-rule="nonzero"/><path fill="#cfe2f3" d="m279.39 527.78l0 0c-3.26-12.87 7.44-25.61 27.55-32.82 20.11-7.21 46.11-7.61 66.97-1.04l0 0c7.39-7.48 20.91-12.65 36.47-13.94 15.57-1.29 31.35 1.46 42.57 7.4l0 0c6.29-6.79 18.65-11.34 32.69-12.06 14.04-0.71 27.76 2.52 36.31 8.55l0 0c11.37-7.19 29.46-10.22 46.44-7.77 16.98 2.45 29.81 9.93 32.92 19.21l0 0c13.93 2.04 25.53 7.24 31.81 14.24 6.28 7 6.62 15.12 0.93 22.27l0 0c13.72 9.6 16.93 22.39 8.43 33.59 -8.5 11.21-27.42 19.15-49.71 20.86 -0.16 10.52-10.89 20.17-28.05 25.23 -17.17 5.06-38.09 4.75-54.71-0.82 -7.08 12.6-27 21.87-51.15 23.8 -24.16 1.94-48.22-3.81-61.79-14.75 -16.64 5.39-36.6 6.95-55.39 4.31 -18.79-2.64-34.81-9.24-44.46-18.32l0 0c-17 1.07-33.44-3.67-41.16-11.86 -7.72-8.19-5.07-18.09 6.63-24.79l0 0c-15.17-4.8-22.9-14.32-19.18-23.6 3.72-9.28 18.07-16.22 35.55-17.19z" fill-rule="nonzero"/><path fill="#000000" fill-opacity="0" d="m262.68 569.07l0 0c7.16 2.26 15.42 3.29 23.69 2.94m10.83 33.7c3.56-0.22 7.04-0.7 10.37-1.41m89.48 15.42c-2.5-2.02-4.59-4.17-6.25-6.43m119.2-2.63l0 0c1.29-2.3 2.13-4.66 2.49-7.05m80.26-17.36c0.17-11.2-11.66-21.45-30.41-26.36m71.7-28.1c-3.04 3.81-7.67 7.2-13.54 9.88m-19.2-46.39l0 0c0.52 1.54 0.76 3.1 0.71 4.67m-80.08-16.1l0 0c-2.84 1.79-5.17 3.8-6.94 5.95m-62.06-2.44l0 0c-1.51 1.63-2.64 3.35-3.36 5.13m-75.68 1.4l0 0c4.41 1.39 8.5 3.06 12.16 4.98m-106.67 28.88l0 0c0.45 1.77 1.16 3.53 2.12 5.24" fill-rule="nonzero"/><path stroke="#000000" stroke-width="1" stroke-linejoin="round" stroke-linecap="butt" d="m279.39 527.78l0 0c-3.26-12.87 7.44-25.61 27.55-32.82 20.11-7.21 46.11-7.61 66.97-1.04l0 0c7.39-7.48 20.91-12.65 36.47-13.94 15.57-1.29 31.35 1.46 42.57 7.4l0 0c6.29-6.79 18.65-11.34 32.69-12.06 14.04-0.71 27.76 2.52 36.31 8.55l0 0c11.37-7.19 29.46-10.22 46.44-7.77 16.98 2.45 29.81 9.93 32.92 19.21l0 0c13.93 2.04 25.53 7.24 31.81 14.24 6.28 7 6.62 15.12 0.93 22.27l0 0c13.72 9.6 16.93 22.39 8.43 33.59 -8.5 11.21-27.42 19.15-49.71 20.86 -0.16 10.52-10.89 20.17-28.05 25.23 -17.17 5.06-38.09 4.75-54.71-0.82 -7.08 12.6-27 21.87-51.15 23.8 -24.16 1.94-48.22-3.81-61.79-14.75 -16.64 5.39-36.6 6.95-55.39 4.31 -18.79-2.64-34.81-9.24-44.46-18.32l0 0c-17 1.07-33.44-3.67-41.16-11.86 -7.72-8.19-5.07-18.09 6.63-24.79l0 0c-15.17-4.8-22.9-14.32-19.18-23.6 3.72-9.28 18.07-16.22 35.55-17.19z" fill-rule="nonzero"/><path stroke="#000000" stroke-width="1" stroke-linejoin="round" stroke-linecap="butt" d="m262.68 569.07l0 0c7.16 2.26 15.42 3.29 23.69 2.94m10.83 33.7c3.56-0.22 7.04-0.7 10.37-1.41m89.48 15.42c-2.5-2.02-4.59-4.17-6.25-6.43m119.2-2.63l0 0c1.29-2.3 2.13-4.66 2.49-7.05m80.26-17.36c0.17-11.2-11.66-21.45-30.41-26.36m71.7-28.1c-3.04 3.81-7.67 7.2-13.54 9.88m-19.2-46.39l0 0c0.52 1.54 0.76 3.1 0.71 4.67m-80.08-16.1l0 0c-2.84 1.79-5.17 3.8-6.94 5.95m-62.06-2.44l0 0c-1.51 1.63-2.64 3.35-3.36 5.13m-75.68 1.4l0 0c4.41 1.39 8.5 3.06 12.16 4.98m-106.67 28.88l0 0c0.45 1.77 1.16 3.53 2.12 5.24" fill-rule="nonzero"/><path fill="#000000" fill-opacity="0" d="m412 531.07l65.89 0 0 46.83 -65.89 0z" fill-rule="nonzero"/><path fill="#000000" d="m421.86 553.61l1.69-0.14q0.13 1.02 0.56 1.67 0.44 0.66 1.36 1.06 0.94 0.41 2.09 0.41 1.03 0 1.81-0.31 0.8-0.31 1.19-0.84 0.39-0.53 0.39-1.16 0-0.64-0.37-1.11 -0.37-0.48-1.23-0.81 -0.55-0.22-2.42-0.66 -1.87-0.45-2.62-0.86 -0.97-0.52-1.45-1.27 -0.47-0.75-0.47-1.69 0-1.03 0.58-1.92 0.59-0.91 1.7-1.36 1.13-0.47 2.5-0.47 1.52 0 2.67 0.48 1.16 0.48 1.77 1.44 0.63 0.94 0.67 2.14l-1.72 0.13q-0.14-1.28-0.95-1.94 -0.8-0.67-2.36-0.67 -1.62 0-2.37 0.61 -0.75 0.59-0.75 1.44 0 0.73 0.53 1.2 0.52 0.47 2.7 0.97 2.2 0.5 3.02 0.88 1.19 0.55 1.75 1.39 0.58 0.83 0.58 1.92 0 1.09-0.62 2.06 -0.62 0.95-1.8 1.48 -1.16 0.53-2.61 0.53 -1.84 0-3.09-0.53 -1.25-0.55-1.97-1.62 -0.7-1.08-0.73-2.45zm14.66 4.38l-3.02-9.86 1.72 0 1.56 5.69 0.59 2.13q0.03-0.16 0.5-2.03l1.58-5.78 1.72 0 1.47 5.72 0.48 1.89 0.58-1.91 1.69-5.7 1.63 0 -3.08 9.86 -1.73 0 -1.58-5.91 -0.37-1.67 -2 7.58 -1.73 0zm11.66-11.69l0-1.91 1.67 0 0 1.91 -1.67 0zm0 11.69l0-9.86 1.67 0 0 9.86 -1.67 0zm4.54 0l0-8.55 -1.48 0 0-1.31 1.48 0 0-1.05q0-0.98 0.17-1.47 0.23-0.66 0.84-1.05 0.61-0.41 1.7-0.41 0.7 0 1.56 0.16l-0.25 1.47q-0.52-0.09-0.98-0.09 -0.77 0-1.08 0.33 -0.31 0.31-0.31 1.2l0 0.91 1.92 0 0 1.31 -1.92 0 0 8.55 -1.66 0zm8.43-1.5l0.23 1.48q-0.7 0.14-1.27 0.14 -0.91 0-1.41-0.28 -0.5-0.3-0.7-0.75 -0.2-0.47-0.2-1.98l0-5.66 -1.23 0 0-1.31 1.23 0 0-2.44 1.66-1 0 3.44 1.69 0 0 1.31 -1.69 0 0 5.75q0 0.72 0.08 0.92 0.09 0.2 0.3 0.33 0.2 0.13 0.58 0.13 0.27 0 0.73-0.08z" fill-rule="nonzero"/><path fill="#000000" fill-opacity="0" d="m339.76 74.22l143.69 0 0 41.29 -143.69 0z" fill-rule="nonzero"/><path fill="#000000" d="m350.52 101.14l0-13.59 1.81 0 0 13.59 -1.81 0zm4.67 0l0-9.86 1.5 0 0 1.41q1.09-1.62 3.14-1.62 0.89 0 1.64 0.33 0.75 0.31 1.11 0.84 0.38 0.52 0.53 1.22 0.09 0.47 0.09 1.63l0 6.06 -1.67 0 0-6q0-1.02-0.2-1.52 -0.19-0.52-0.69-0.81 -0.5-0.3-1.17-0.3 -1.06 0-1.84 0.67 -0.77 0.67-0.77 2.58l0 5.38 -1.67 0zm14.03-1.5l0.23 1.48q-0.7 0.14-1.27 0.14 -0.91 0-1.41-0.28 -0.5-0.3-0.7-0.75 -0.2-0.47-0.2-1.98l0-5.66 -1.23 0 0-1.31 1.23 0 0-2.44 1.66-1 0 3.44 1.69 0 0 1.31 -1.69 0 0 5.75q0 0.72 0.08 0.92 0.09 0.2 0.3 0.33 0.2 0.13 0.58 0.13 0.27 0 0.73-0.08zm8.28-1.67l1.72 0.22q-0.41 1.5-1.52 2.34 -1.09 0.83-2.81 0.83 -2.16 0-3.42-1.33 -1.27-1.33-1.27-3.73 0-2.48 1.27-3.86 1.28-1.37 3.33-1.37 1.98 0 3.23 1.34 1.25 1.34 1.25 3.8 0 0.14-0.02 0.44l-7.34 0q0.09 1.63 0.92 2.48 0.83 0.86 2.06 0.86 0.91 0 1.55-0.47 0.66-0.48 1.05-1.55zm-5.48-2.7l5.5 0q-0.11-1.23-0.62-1.86 -0.8-0.97-2.08-0.97 -1.14 0-1.94 0.78 -0.78 0.77-0.86 2.05zm9.09 5.88l0-9.86 1.5 0 0 1.5q0.58-1.05 1.06-1.37 0.48-0.34 1.08-0.34 0.84 0 1.72 0.55l-0.58 1.55q-0.61-0.36-1.23-0.36 -0.55 0-0.98 0.33 -0.42 0.33-0.61 0.91 -0.28 0.89-0.28 1.95l0 5.16 -1.67 0zm6.23 0l0-9.86 1.5 0 0 1.41q1.09-1.62 3.14-1.62 0.89 0 1.64 0.33 0.75 0.31 1.11 0.84 0.38 0.52 0.53 1.22 0.09 0.47 0.09 1.63l0 6.06 -1.67 0 0-6q0-1.02-0.2-1.52 -0.19-0.52-0.69-0.81 -0.5-0.3-1.17-0.3 -1.06 0-1.84 0.67 -0.77 0.67-0.77 2.58l0 5.38 -1.67 0zm17.13-3.17l1.72 0.22q-0.41 1.5-1.52 2.34 -1.09 0.83-2.81 0.83 -2.16 0-3.42-1.33 -1.27-1.33-1.27-3.73 0-2.48 1.27-3.86 1.28-1.37 3.33-1.37 1.98 0 3.23 1.34 1.25 1.34 1.25 3.8 0 0.14-0.02 0.44l-7.34 0q0.09 1.63 0.92 2.48 0.83 0.86 2.06 0.86 0.91 0 1.55-0.47 0.66-0.48 1.05-1.55zm-5.48-2.7l5.5 0q-0.11-1.23-0.62-1.86 -0.8-0.97-2.08-0.97 -1.14 0-1.94 0.78 -0.78 0.77-0.86 2.05zm12.77 4.38l0.23 1.48q-0.7 0.14-1.27 0.14 -0.91 0-1.41-0.28 -0.5-0.3-0.7-0.75 -0.2-0.47-0.2-1.98l0-5.66 -1.23 0 0-1.31 1.23 0 0-2.44 1.66-1 0 3.44 1.69 0 0 1.31 -1.69 0 0 5.75q0 0.72 0.08 0.92 0.09 0.2 0.3 0.33 0.2 0.13 0.58 0.13 0.27 0 0.73-0.08zm15.85-12.09l1.8 0 0 7.84q0 2.06-0.47 3.27 -0.45 1.2-1.67 1.97 -1.2 0.75-3.17 0.75 -1.91 0-3.12-0.66 -1.22-0.66-1.73-1.91 -0.52-1.25-0.52-3.42l0-7.84 1.8 0 0 7.84q0 1.77 0.33 2.61 0.33 0.84 1.13 1.3 0.81 0.45 1.97 0.45 1.98 0 2.83-0.89 0.84-0.91 0.84-3.47l0-7.84zm3.66 10.66l1.66-0.27q0.14 1 0.77 1.53 0.64 0.52 1.78 0.52 1.16 0 1.7-0.47 0.56-0.47 0.56-1.09 0-0.56-0.48-0.89 -0.34-0.22-1.7-0.56 -1.84-0.47-2.56-0.8 -0.7-0.34-1.08-0.94 -0.36-0.61-0.36-1.33 0-0.66 0.3-1.22 0.31-0.56 0.83-0.94 0.39-0.28 1.06-0.48 0.67-0.2 1.44-0.2 1.17 0 2.05 0.34 0.88 0.33 1.28 0.91 0.42 0.56 0.58 1.52l-1.62 0.22q-0.11-0.75-0.66-1.17 -0.53-0.44-1.5-0.44 -1.16 0-1.64 0.39 -0.48 0.38-0.48 0.88 0 0.33 0.2 0.59 0.2 0.27 0.64 0.44 0.25 0.09 1.47 0.44 1.77 0.47 2.47 0.77 0.7 0.3 1.09 0.88 0.41 0.58 0.41 1.44 0 0.83-0.48 1.58 -0.48 0.73-1.41 1.14 -0.92 0.39-2.08 0.39 -1.92 0-2.94-0.8 -1-0.8-1.28-2.36zm16.75-0.23l1.72 0.22q-0.41 1.5-1.52 2.34 -1.09 0.83-2.81 0.83 -2.16 0-3.42-1.33 -1.27-1.33-1.27-3.73 0-2.48 1.27-3.86 1.28-1.37 3.33-1.37 1.98 0 3.23 1.34 1.25 1.34 1.25 3.8 0 0.14-0.02 0.44l-7.34 0q0.09 1.63 0.92 2.48 0.83 0.86 2.06 0.86 0.91 0 1.55-0.47 0.66-0.48 1.05-1.55zm-5.48-2.7l5.5 0q-0.11-1.23-0.62-1.86 -0.8-0.97-2.08-0.97 -1.14 0-1.94 0.78 -0.78 0.77-0.86 2.05zm9.09 5.88l0-9.86 1.5 0 0 1.5q0.58-1.05 1.06-1.37 0.48-0.34 1.08-0.34 0.84 0 1.72 0.55l-0.58 1.55q-0.61-0.36-1.23-0.36 -0.55 0-0.98 0.33 -0.42 0.33-0.61 0.91 -0.28 0.89-0.28 1.95l0 5.16 -1.67 0zm5.56-2.94l1.66-0.27q0.14 1 0.77 1.53 0.64 0.52 1.78 0.52 1.16 0 1.7-0.47 0.56-0.47 0.56-1.09 0-0.56-0.48-0.89 -0.34-0.22-1.7-0.56 -1.84-0.47-2.56-0.8 -0.7-0.34-1.08-0.94 -0.36-0.61-0.36-1.33 0-0.66 0.3-1.22 0.31-0.56 0.83-0.94 0.39-0.28 1.06-0.48 0.67-0.2 1.44-0.2 1.17 0 2.05 0.34 0.88 0.33 1.28 0.91 0.42 0.56 0.58 1.52l-1.62 0.22q-0.11-0.75-0.66-1.17 -0.53-0.44-1.5-0.44 -1.16 0-1.64 0.39 -0.48 0.38-0.48 0.88 0 0.33 0.2 0.59 0.2 0.27 0.64 0.44 0.25 0.09 1.47 0.44 1.77 0.47 2.47 0.77 0.7 0.3 1.09 0.88 0.41 0.58 0.41 1.44 0 0.83-0.48 1.58 -0.48 0.73-1.41 1.14 -0.92 0.39-2.08 0.39 -1.92 0-2.94-0.8 -1-0.8-1.28-2.36z" fill-rule="nonzero"/><path fill="#000000" fill-opacity="0" d="m211.56 252.69l0 32" fill-rule="nonzero"/><path stroke="#000000" stroke-width="1" stroke-linejoin="round" stroke-linecap="butt" d="m211.56 252.69l0 32" fill-rule="nonzero"/><path fill="#000000" fill-opacity="0" d="m374.36 252.69l0 116.85" fill-rule="nonzero"/><path stroke="#000000" stroke-width="1" stroke-linejoin="round" stroke-linecap="butt" d="m374.36 252.69l0 116.85" fill-rule="nonzero"/><path fill="#000000" fill-opacity="0" d="m537.16 252.69l0 32" fill-rule="nonzero"/><path stroke="#000000" stroke-width="1" stroke-linejoin="round" stroke-linecap="butt" d="m537.16 252.69l0 32" fill-rule="nonzero"/><path fill="#000000" fill-opacity="0" d="m699.97 252.69l0 32" fill-rule="nonzero"/><path stroke="#000000" stroke-width="1" stroke-linejoin="round" stroke-linecap="butt" d="m699.97 252.69l0 32" fill-rule="nonzero"/><path fill="#000000" fill-opacity="0" d="m211.56 319.61l162.8 49.92" fill-rule="nonzero"/><path stroke="#000000" stroke-width="1" stroke-linejoin="round" stroke-linecap="butt" d="m211.56 319.61l162.8 49.92" fill-rule="nonzero"/><path fill="#000000" fill-opacity="0" d="m537.16 319.61l-162.8 49.92" fill-rule="nonzero"/><path stroke="#000000" stroke-width="1" stroke-linejoin="round" stroke-linecap="butt" d="m537.16 319.61l-162.8 49.92" fill-rule="nonzero"/><path fill="#000000" fill-opacity="0" d="m699.97 319.61l-325.61 49.92" fill-rule="nonzero"/><path stroke="#000000" stroke-width="1" stroke-linejoin="round" stroke-linecap="butt" d="m699.97 319.61l-325.61 49.92" fill-rule="nonzero"/><path fill="#000000" fill-opacity="0" d="m374.36 404.46l70.58 79.37" fill-rule="nonzero"/><path stroke="#000000" stroke-width="1" stroke-linejoin="round" stroke-linecap="butt" d="m374.36 404.46l70.58 79.37" fill-rule="nonzero"/><path fill="#000000" fill-opacity="0" d="m407.23 156.26l-195.69 61.51" fill-rule="nonzero"/><path stroke="#000000" stroke-width="1" stroke-linejoin="round" stroke-linecap="butt" d="m407.23 156.26l-195.69 61.51" fill-rule="nonzero"/><path fill="#000000" fill-opacity="0" d="m407.23 156.26l-32.88 61.51" fill-rule="nonzero"/><path stroke="#000000" stroke-width="1" stroke-linejoin="round" stroke-linecap="butt" d="m407.23 156.26l-32.88 61.51" fill-rule="nonzero"/><path fill="#000000" fill-opacity="0" d="m407.23 156.26l129.92 61.51" fill-rule="nonzero"/><path stroke="#000000" stroke-width="1" stroke-linejoin="round" stroke-linecap="butt" d="m407.23 156.26l129.92 61.51" fill-rule="nonzero"/><path fill="#000000" fill-opacity="0" d="m407.23 156.26l292.72 61.51" fill-rule="nonzero"/><path stroke="#000000" stroke-width="1" stroke-linejoin="round" stroke-linecap="butt" d="m407.23 156.26l292.72 61.51" fill-rule="nonzero"/></g></svg>